<?xml version="1.0" encoding="UTF-8"?>
<svg xmlns="http://www.w3.org/2000/svg" width="172" height="40" viewBox="0 0 172 40" fill="none">
  <g clip-path="url(#clip0_2881_76988)">
    <path d="M3.40978 16.4963H0.115234L6.9316 0.409047H9.88614L16.6343 16.4963H13.2716L11.8171 12.9518H4.81887L3.40978 16.4963ZM5.75069 10.43H10.908L8.34069 3.77268L5.75069 10.43Z" fill="#1D4451"></path>
    <path d="M22.6363 10.7018V16.4963H19.6145V0.409047H26.1127C30.089 0.409047 32.0654 2.29541 32.0654 5.38541C32.0654 8.72541 29.7927 10.7027 26.09 10.7027H22.6363V10.7018ZM22.6363 8.2254H25.8172C27.9981 8.2254 29.0436 7.13449 29.0436 5.49813C29.0436 3.95359 28.1345 2.95359 25.8172 2.95359H22.6363V8.2254Z" fill="#1D4451"></path>
    <path d="M39.1136 10.7018V16.4963H36.0918V0.409047H42.59C46.5663 0.409047 48.5427 2.29541 48.5427 5.38541C48.5427 8.72541 46.27 10.7027 42.5673 10.7027H39.1136V10.7018ZM39.1136 8.2254H42.2945C44.4754 8.2254 45.5209 7.13449 45.5209 5.49813C45.5209 3.95359 44.6118 2.95359 42.2945 2.95359H39.1136V8.2254Z" fill="#1D4451"></path>
    <path d="M52.5678 16.4963V0.409047H63.7696V3.02268H55.5214V7.11268H62.3605V9.56632H55.5214V13.8836H63.996V16.4972H52.5669L52.5678 16.4963Z" fill="#1D4451"></path>
    <path d="M67.9318 0.409047H70.8863L78.5663 11.77H78.589L78.5436 0.409047H81.429V16.4963H78.4299L70.7954 5.27177H70.7727L70.8409 16.4963H67.9327V0.409047H67.9318Z" fill="#1D4451"></path>
    <path d="M97.3607 2.86272L88.9307 13.8373H97.4971V16.4954H85.2271V13.8818L93.5207 3.02091H85.4089V0.407271H97.3607V2.8609V2.86272Z" fill="#1D4451"></path>
    <path d="M101.295 16.4963V0.409047H112.497V3.02268H104.249V7.11268H111.088V9.56632H104.249V13.8836H112.723V16.4972H101.294L101.295 16.4963Z" fill="#1D4451"></path>
    <path d="M119.703 13.8373H126.429V16.4954H116.658V0.408159H119.702V13.8363L119.703 13.8373Z" fill="#1D4451"></path>
    <path d="M132.657 13.8373H139.382V16.4954H129.611V0.408159H132.656V13.8363L132.657 13.8373Z" fill="#1D4451"></path>
    <path d="M142.567 16.4963V0.409047H153.769V3.02268H145.521V7.11268H152.36V9.56632H145.521V13.8836H153.996V16.4972H142.567V16.4963Z" fill="#1D4451"></path>
    <path d="M157.93 0.409047H164.542C168.268 0.409047 170.381 2.24905 170.381 5.27177C170.381 7.86268 168.608 9.40722 166.814 9.86177L171.222 16.4963H167.586L163.701 10.339H160.929V16.4963H157.93V0.409047ZM164.043 2.95359H160.907V7.99813H164.111C166.27 7.99813 167.36 7.02086 167.36 5.38449C167.36 3.65813 166.11 2.95359 164.043 2.95359Z" fill="#1D4451"></path>
    <path d="M10.6335 32.2709H3.04442V39.2236H-0.00012207V23.1363H3.0217V29.6572H10.6335V23.1363H13.6781V39.2236H10.6335V32.2709Z" fill="#1D4451"></path>
    <path d="M18.3636 33.179V23.1363H21.3855V32.929C21.3855 34.9745 22.34 36.9054 24.93 36.9054C27.52 36.9054 28.4518 34.9736 28.4518 32.929V23.1363H31.4964V33.179C31.4964 36.61 29.3382 39.6554 24.9073 39.6554C20.4536 39.6554 18.3636 36.61 18.3636 33.179Z" fill="#1D4451"></path>
    <path d="M36.0453 33.179V23.1363H39.0671V32.929C39.0671 34.9745 40.0217 36.9054 42.6117 36.9054C45.2017 36.9054 46.1335 34.9736 46.1335 32.929V23.1363H49.178V33.179C49.178 36.61 47.0198 39.6554 42.5889 39.6554C38.1353 39.6554 36.0453 36.61 36.0453 33.179Z" fill="#1D4451"></path>
    <path d="M61.8383 26.84C60.7929 25.7491 59.5883 25.3173 58.5438 25.3173C56.7938 25.3173 56.0438 26.2491 56.0438 27.1355C56.0438 30.1118 64.2692 29.3627 64.2692 34.5654C64.2692 37.5645 61.5201 39.6554 58.3392 39.6554C55.2947 39.6554 53.2047 37.7691 52.6583 37.2236L54.5674 35.1791C55.6128 36.3154 57.0211 37.0418 58.4301 37.0418C60.0656 37.0418 61.2474 36.0418 61.2474 34.8382C61.2474 31.7936 53.0447 32.6109 53.0447 27.4309C53.0447 24.6591 55.431 22.7273 58.521 22.7273C60.3838 22.7273 62.4519 23.4545 63.7247 24.9082L61.8383 26.84Z" fill="#1D4451"></path>
  </g>
  <defs>
    <clipPath id="clip0_2881_76988">
      <rect width="171.818" height="40" fill="white"></rect>
    </clipPath>
  </defs>
</svg>
