<svg width="156" height="116" viewBox="0 0 156 116" fill="none" xmlns="http://www.w3.org/2000/svg">
<g clip-path="url(#clip0_3208_109706)">
<path fill-rule="evenodd" clip-rule="evenodd" d="M118.75 28.8892C118.755 28.8916 118.758 28.8933 118.76 28.894C118.847 28.9464 118.882 29.0512 118.882 29.156C118.838 29.252 118.742 29.3044 118.637 29.287C116.734 28.8853 114.446 33.5221 113.852 35.4258C113.492 36.5799 113.181 37.6618 112.879 38.7101L112.839 38.8489L112.823 38.9035C112.123 41.3343 111.514 43.447 110.603 45.2672C110.988 45.337 111.381 45.4855 111.782 45.7562C112.324 45.6863 113.258 45.7824 113.826 46.481C113.852 46.481 113.887 46.481 113.913 46.4897C114.62 46.6905 115.101 47.0573 115.336 47.59C115.677 48.3497 115.389 49.2054 115.249 49.5373C115.467 49.7818 115.86 50.2708 115.86 50.5939V50.9781C116.341 51.3885 117.554 52.4801 117.554 53.0652C117.554 53.4843 117.231 53.9646 117.109 54.1305C117.083 54.4623 116.9 54.9688 116.402 55.1696C116.454 55.4229 116.533 56.1215 116.079 56.5494C115.555 57.0384 115.293 56.9772 115.179 56.8987C115.177 56.8987 115.164 56.8905 115.141 56.8761C115.072 56.8331 114.915 56.7349 114.699 56.6367C114.795 56.9685 114.839 57.4837 114.699 58.2609C114.568 59.0206 114.009 59.6231 113.092 60.0074C113.106 60.0411 113.12 60.0744 113.134 60.1075C113.181 60.2198 113.226 60.3293 113.267 60.444C113.354 60.6972 113.442 60.9155 113.529 61.0989C113.904 61.9285 114.166 62.0246 114.166 62.0246C114.254 62.042 114.315 62.1031 114.332 62.1817C114.358 62.2603 114.323 62.3476 114.254 62.4C114.14 62.4874 113.808 62.6795 113.022 62.531C112.612 62.4524 112.263 62.3127 112.009 62.1905C112.088 62.6096 112.158 63.3169 112.105 64.3473C112.001 66.2248 110.228 67.5783 110.149 67.6307C110.106 67.6569 110.062 67.6744 110.018 67.6744C109.975 67.6744 109.931 67.6656 109.896 67.6394C109.818 67.5871 109.791 67.491 109.818 67.4037C110.612 64.9237 106.211 59.5882 99.1204 56.1477H84.3802C84.0571 57.0558 83.1839 57.6846 82.1971 57.6846C81.2802 57.6846 80.4507 57.1432 80.0752 56.3223C79.6997 57.1344 78.8701 57.6846 77.9445 57.6846C77.0189 57.6846 76.1806 57.1344 75.8138 56.3049C75.447 57.1257 74.6087 57.6846 73.6831 57.6846C72.7051 57.6846 71.8318 57.0558 71.5 56.1477H56.6812C49.5905 59.5882 45.1894 64.9237 45.9841 67.4037C46.0103 67.491 45.9841 67.5871 45.9055 67.6394C45.8269 67.6918 45.7221 67.6918 45.6522 67.6394C45.5824 67.5871 43.8097 66.2335 43.7049 64.3561C43.6438 63.3257 43.7137 62.6271 43.7923 62.1992C43.5303 62.3302 43.181 62.4612 42.7793 62.5398C41.9148 62.7057 41.5917 62.4437 41.5393 62.3913C41.4956 62.3389 41.4694 62.2778 41.4782 62.2079C41.4869 62.1381 41.5306 62.0857 41.5917 62.0507L41.594 62.0498C41.6378 62.0323 41.7075 62.0045 41.8362 61.8586C41.9148 61.7626 42.037 61.5879 42.1855 61.2998C41.6965 60.6448 41.1376 57.9029 41.8013 56.1215C42.4387 54.4187 44.0455 53.7026 45.3466 53.1263C45.3466 53.1175 45.3553 53.1175 45.3553 53.1175C44.517 53.2311 43.6089 53.2398 42.9539 53.0564C42.1904 52.8443 41.3032 52.1707 41.2213 52.1085L41.2162 52.1046C41.1463 52.0435 41.1202 51.9561 41.1464 51.8688C41.1726 51.7815 41.2511 51.7204 41.3385 51.7204L43.539 51.6592C43.7399 51.6418 43.9058 51.4671 43.897 51.2576C43.8883 51.0567 43.7137 50.8908 43.5128 50.8908L42.9103 50.9345C41.7751 51.0218 41.3035 51.0567 40.7709 50.8035C39.8278 50.3494 39.9326 48.9522 39.9413 48.8911C39.95 48.795 40.0199 48.7164 40.1072 48.699C41.2511 48.4283 42.5523 48.1052 42.7007 48.0353C42.888 47.8855 43.0431 47.7292 43.1937 47.5776C43.2187 47.5525 43.2435 47.5275 43.2683 47.5026L43.2794 47.4916C43.7719 46.999 44.1681 46.6027 45.3903 46.5333C45.3815 46.4635 45.3815 46.3849 45.3815 46.3063C45.3903 46.1404 45.4252 45.9745 45.4863 45.826C44.4123 43.8787 43.7399 41.5559 42.9714 38.8663C42.657 37.7661 42.334 36.6396 41.9497 35.4258C41.3472 33.5221 39.0419 28.9027 37.1557 29.287C37.0509 29.3044 36.9461 29.252 36.9112 29.156C36.8675 29.0599 36.9112 28.9464 36.9985 28.894C37 28.8932 37.0032 28.8915 37.008 28.8889C37.1117 28.8329 37.9617 28.3739 38.9633 28.4574C40.1334 28.5534 41.8799 29.3568 43.2858 31.3303C43.801 32.0638 44.1503 32.6751 44.3861 33.1728C44.4123 32.5267 44.552 31.8979 44.8925 31.374C45.2506 30.8413 45.0584 30.4309 45.0497 30.4134C45.0148 30.3261 45.0322 30.23 45.1021 30.1602C45.172 30.0903 45.2768 30.0816 45.3553 30.134C46.5168 30.8588 47.2765 31.6796 47.7742 32.5441C50.586 17.5943 58.0959 0.0859633 77.8834 0.0859633C97.4962 0.0859633 105.076 17.6031 107.975 32.5703C108.508 31.636 109.294 30.8326 110.403 30.1427C110.481 30.0903 110.586 30.1078 110.656 30.1689C110.726 30.23 110.743 30.3348 110.7 30.4222C110.7 30.4238 110.698 30.429 110.695 30.4374C110.668 30.5175 110.541 30.8929 110.857 31.3827C111.197 31.8979 111.328 32.5441 111.363 33.1816C111.599 32.6838 111.948 32.0638 112.472 31.3303C113.869 29.3568 115.625 28.5534 116.795 28.4574C117.79 28.3738 118.649 28.8345 118.75 28.8892ZM107.652 33.1641C104.858 18.2493 97.4264 0.505117 77.8746 0.505117C58.1308 0.505117 50.7781 18.258 48.0886 33.1728C48.8832 35.0765 48.5514 37.1897 48.237 39.137C48.1992 39.3414 48.1679 39.5458 48.1375 39.7446C48.1328 39.7751 48.1282 39.8054 48.1235 39.8356V39.8618C48.0973 40.2897 47.9663 43.9835 50.979 47.066C51.0314 41.1891 51.6601 30.5182 55.1792 21.2183C59.6415 9.42958 67.2648 3.44792 77.831 3.44792C88.2836 3.44792 95.872 9.40338 100.387 21.1397C103.976 30.4658 104.683 41.2066 104.77 47.066C107.809 43.966 107.661 40.3072 107.626 39.8444C107.595 39.6614 107.569 39.4955 107.544 39.3377C107.533 39.2696 107.523 39.2029 107.512 39.137C107.189 37.1286 106.857 35.0503 107.652 33.1641ZM82.1797 50.7074H82.1622C82.3019 51.013 82.3893 51.3361 82.398 51.6767V51.7029C82.398 51.8426 82.3805 51.9736 82.3543 52.1133C82.9918 51.8513 83.6031 51.6505 84.2143 51.4933C84.974 51.3012 85.7076 51.179 86.4585 51.1266C89.6546 50.8821 92.2132 51.0043 94.0732 51.4933C94.8154 51.6854 95.4354 51.9474 95.9244 52.253C95.9244 52.2312 95.9222 52.2094 95.92 52.1875C95.9179 52.1657 95.9157 52.1439 95.9157 52.1221V52.0871C95.9069 51.9736 95.8982 51.8601 95.872 51.7378C95.8284 51.4933 95.7585 51.2925 95.6712 51.1528C95.514 50.9257 95.2957 50.7249 94.9988 50.524C94.0557 49.8691 92.6061 49.3452 92.1695 49.1967C92.1433 49.1967 92.1258 49.188 92.1084 49.1792C92.1258 49.188 92.0909 49.1793 92.0472 49.1531C91.9512 49.0832 91.925 48.9522 91.9861 48.8562C92.0385 48.7776 92.1433 48.7426 92.2306 48.7776C92.2393 48.7776 92.2568 48.7776 92.2655 48.7863C92.6323 48.8649 93.4881 49.0483 94.4836 49.1967C96.1776 49.4412 97.4176 49.4674 98.0726 49.2578C100.072 48.6204 100.771 46.7779 101.103 45.8959C101.117 45.86 101.13 45.8259 101.143 45.7935C101.232 45.5655 101.288 45.4211 101.365 45.337C101.435 45.2497 101.531 45.1798 101.618 45.1187C101.443 45.0925 101.225 45.0925 100.946 45.1187C100.229 45.1886 99.7492 45.4156 99.7492 45.4156C99.6618 45.4505 99.5571 45.4331 99.4959 45.3632C99.4348 45.2934 99.4261 45.1886 99.4697 45.11C100.229 43.8351 100.483 42.7959 100.247 41.9227C100.037 41.1542 99.4348 40.4644 98.4131 39.8269C98.71 40.9796 98.9458 43.7215 95.6624 46.2452C94.8591 46.8564 93.9596 47.2494 92.7284 47.5201C92.1196 47.65 91.4806 47.7421 90.8115 47.8386C90.7608 47.8459 90.7099 47.8533 90.6588 47.8607C88.3273 48.1838 85.4456 48.6815 82.1797 50.7074ZM76.1456 48.699C76.4425 49.4238 77.1411 49.8953 77.9183 49.8953C78.7391 49.8953 79.4639 49.3714 79.7259 48.5942C79.7957 48.4021 79.8307 48.2012 79.8307 47.9829C79.8307 47.7646 79.7957 47.5638 79.7259 47.3717C79.4639 46.5945 78.7391 46.0705 77.9183 46.0705C77.1324 46.0705 76.4425 46.5333 76.1456 47.2581C76.0496 47.4852 76.0059 47.7297 76.0059 47.9829C76.0059 48.2362 76.0496 48.4719 76.1456 48.699ZM77.9183 50.7074C77.9882 50.5677 78.0667 50.428 78.1541 50.3057C78.0056 50.3232 77.8397 50.3232 77.6825 50.3057C77.7786 50.428 77.8572 50.5677 77.9183 50.7074ZM77.7087 51.668H77.7C77.7 50.6114 76.8442 49.7556 75.7876 49.7556C75.1065 49.7556 74.469 50.1223 74.1372 50.7161C74.111 50.7511 74.1022 50.7685 74.0935 50.786C73.9451 51.0654 73.8752 51.3623 73.8752 51.668C73.8752 51.9561 73.9363 52.2094 74.0411 52.4452C74.0455 52.4495 74.0499 52.4604 74.0542 52.4714C74.0586 52.4823 74.063 52.4932 74.0673 52.4975C74.3817 53.1525 75.0541 53.5804 75.7876 53.5804C75.9186 53.5804 76.0496 53.5716 76.1805 53.5454C76.4949 53.4843 76.7918 53.3359 77.0276 53.1263C77.4467 52.7682 77.6913 52.2443 77.7 51.6942H77.7087V51.668ZM78.1541 53.0302C78.058 52.908 77.9794 52.7682 77.9183 52.6285C77.8572 52.7682 77.7786 52.8992 77.6913 53.0302C77.7698 53.0215 77.8397 53.0215 77.9183 53.0215C77.9969 53.0215 78.0755 53.0215 78.1541 53.0302ZM80.049 49.7556C78.9924 49.7556 78.1366 50.6114 78.1366 51.668C78.1453 52.2181 78.3724 52.7246 78.7741 53.0564C79.0098 53.2747 79.298 53.4319 79.6124 53.5018C80.0228 53.6153 80.5205 53.5542 80.9397 53.3446L81.0095 53.3097C81.0139 53.3053 81.0183 53.3031 81.0226 53.3009C81.027 53.2987 81.0314 53.2966 81.0357 53.2922H81.0445C81.3239 53.1175 81.5597 52.873 81.7081 52.5936C81.717 52.5758 81.7259 52.5587 81.7346 52.5417C81.7603 52.4921 81.7847 52.4449 81.8042 52.3928C81.9002 52.1657 81.9526 51.9212 81.9526 51.6854V51.6592C81.9526 51.3536 81.8828 51.048 81.7343 50.7685L81.7081 50.7161C81.3414 50.1136 80.7214 49.7556 80.049 49.7556ZM80.0489 49.3277H80.049C80.8262 49.3277 81.5335 49.7294 81.9526 50.3669C81.957 50.3669 81.9592 50.3647 81.9614 50.3625C81.9635 50.3603 81.9657 50.3581 81.9701 50.3581C85.3146 48.2798 88.336 47.7559 90.5889 47.4415C91.1478 47.3629 91.6718 47.2843 92.1782 47.1883C89.445 44.4812 86.0394 42.6213 82.2845 41.8004L82.2059 41.783C82.1155 41.7589 82.0293 41.7431 81.9416 41.727C81.9021 41.7198 81.8623 41.7125 81.8217 41.7044L81.7518 41.6869C81.1929 41.5821 80.6253 41.4948 80.0752 41.4424C80.0371 41.4382 80.0011 41.436 79.9661 41.4339C79.9289 41.4316 79.8929 41.4294 79.8569 41.4249C79.2194 41.3638 78.582 41.3289 77.9445 41.3289H77.8746C77.2022 41.3289 76.556 41.3638 75.9186 41.4337L75.6479 41.4599C75.1327 41.5122 74.6 41.5908 74.0149 41.7044C73.9887 41.7131 73.9625 41.7218 73.9276 41.7218C73.823 41.748 73.7011 41.7741 73.5791 41.8003L73.5783 41.8004L73.5172 41.8179C69.7797 42.6474 66.4003 44.5162 63.6846 47.2145C64.1561 47.2931 64.6451 47.3717 65.1603 47.4415C67.4045 47.7559 70.2076 48.1488 73.5347 50.2184C73.5513 50.2284 73.5655 50.2359 73.5775 50.2422C73.5971 50.2525 73.6112 50.26 73.622 50.2708C73.6266 50.2708 73.6288 50.2733 73.6311 50.2756C73.6332 50.2776 73.6354 50.2795 73.6394 50.2795L73.6482 50.2883C73.6569 50.297 73.6918 50.3145 73.7006 50.3232C73.7049 50.3232 73.718 50.3319 73.7311 50.3407C73.7442 50.3494 73.7573 50.3581 73.7617 50.3581C73.7879 50.3756 73.7966 50.3843 73.8316 50.4018C74.2769 49.677 75.1501 49.2666 76.0146 49.3452C75.9099 49.1967 75.8225 49.0395 75.7527 48.8649C75.6391 48.5855 75.578 48.2886 75.578 47.9829C75.578 47.6773 75.6391 47.3804 75.7527 47.101C76.1194 46.2103 76.9665 45.6427 77.9183 45.6427C78.9225 45.6427 79.8132 46.2801 80.1276 47.2319C80.2062 47.4677 80.2498 47.721 80.2498 47.9829C80.2498 48.2449 80.2062 48.4981 80.1188 48.7339C80.049 48.9522 79.9442 49.1531 79.8132 49.3364C79.8918 49.3277 79.9703 49.3277 80.0489 49.3277ZM71.5437 51.4846C72.1811 51.6505 72.8273 51.8688 73.5085 52.1483C73.4735 51.9998 73.4561 51.8514 73.4473 51.6942C73.4473 51.3449 73.4997 51.048 73.6307 50.7598C73.5918 50.7431 73.5741 50.7335 73.5528 50.722C73.5407 50.7154 73.5275 50.7082 73.5085 50.6987L73.3425 50.5939C70.0592 48.5593 67.422 48.1838 65.0992 47.8607C64.4443 47.7733 63.8243 47.686 63.2305 47.5638C62.3223 47.3804 61.1522 47.0748 60.0781 46.2452C56.7947 43.7215 57.0305 40.9796 57.3274 39.8269C56.3057 40.4644 55.7032 41.1542 55.4936 41.9227C55.2491 42.7959 55.5023 43.8351 56.2621 45.11C56.3057 45.1886 56.297 45.2934 56.2359 45.3632C56.1747 45.4331 56.0787 45.4593 55.9914 45.4156C55.9904 45.4156 55.9836 45.4128 55.9713 45.4076C55.874 45.3667 55.4309 45.1807 54.795 45.1187C54.5156 45.0925 54.2973 45.1012 54.1226 45.1187C54.2187 45.1711 54.306 45.2497 54.3846 45.337C54.4719 45.4331 54.5418 45.6077 54.6466 45.8959C54.9784 46.7779 55.677 48.6204 57.6767 49.2578C58.3753 49.4849 59.7201 49.45 61.5539 49.1531C62.4795 49.0133 63.2567 48.8474 63.5448 48.7776C63.6584 48.7514 63.7631 48.8212 63.7981 48.926C63.833 49.0308 63.7719 49.1443 63.6671 49.1792C63.5274 49.2229 62.235 49.6595 61.2133 50.2446C61.2089 50.2446 61.2067 50.2468 61.2046 50.249C61.2024 50.2511 61.2002 50.2533 61.1958 50.2533C60.6719 50.5502 60.3051 50.8471 60.1217 51.1091C60.0082 51.2925 59.9384 51.4933 59.8947 51.7291L59.8921 51.7475C59.8747 51.8686 59.8506 52.0367 59.8423 52.2443C60.3313 51.9299 60.9513 51.6767 61.6936 51.4846C63.5448 50.9956 66.1122 50.8733 69.3082 51.1178C70.0592 51.1702 70.7927 51.2925 71.5437 51.4846ZM94.1779 49.5722C94.5447 49.7469 94.9027 49.9477 95.2171 50.166C95.5402 50.3843 95.7847 50.6026 95.9506 50.8035C97.1207 50.7685 98.0464 50.6463 98.7275 50.4542C101.024 49.7905 102.91 48.7776 104.36 47.4502C104.29 41.7131 103.644 30.7453 99.9937 21.2707C95.5489 9.70902 88.0915 3.84961 77.831 3.84961C67.4569 3.84961 59.9646 9.74395 55.5722 21.3492C51.9919 30.8064 51.4156 41.7044 51.3981 47.459C52.839 48.7776 54.7339 49.7905 57.0305 50.4542C57.7116 50.655 58.646 50.7685 59.8074 50.8035C60.0432 50.4978 60.4361 50.1922 60.9775 49.8778C60.9819 49.8778 60.9841 49.8757 60.9863 49.8735C60.9884 49.8713 60.9906 49.8691 60.995 49.8691C61.1871 49.7643 61.3792 49.6595 61.5801 49.5635C60.2615 49.7731 58.515 49.9564 57.5719 49.6508C55.3714 48.9435 54.6291 46.9787 54.2711 46.0269C54.2579 45.994 54.2445 45.9599 54.231 45.9259C54.1732 45.7792 54.1161 45.6344 54.0877 45.599C53.948 45.4418 53.7297 45.3545 53.5987 45.3021L53.5987 45.3021L53.596 45.301C53.483 45.2576 53.3455 45.2047 53.3455 45.0401C53.3542 44.9528 53.424 44.8567 53.5114 44.8305C53.7122 44.7519 54.1139 44.6035 54.8649 44.6821C55.1705 44.717 55.4412 44.7694 55.6508 44.8305C55.0483 43.6691 54.8736 42.6824 55.1094 41.8091C55.3801 40.8137 56.2009 39.9492 57.6243 39.172C57.7029 39.1283 57.7989 39.1458 57.8688 39.2069C57.9299 39.268 57.9561 39.3641 57.9125 39.4514L57.9103 39.4563C57.8234 39.6533 56.4051 42.8689 60.3575 45.9046C61.1172 46.4897 61.973 46.8564 63.1868 47.1097C65.8676 44.359 69.2383 42.4379 72.9583 41.521V37.8796C72.9583 33.4959 69.0462 29.8808 64.5229 29.8808C63.3091 29.8808 62.1651 30.134 61.126 30.5881C60.9775 30.6579 60.8116 30.6929 60.637 30.6929C59.9646 30.6929 59.4144 30.1427 59.4144 29.4703C59.4144 28.9377 59.7637 28.4836 60.244 28.3177C61.2482 27.9684 62.3398 27.7763 63.4662 27.7763C68.9414 27.7763 73.3862 32.2123 73.3862 37.6875V37.6962V37.7049V41.4162C73.3949 41.4162 73.4015 41.414 73.408 41.4118C73.4146 41.4096 73.4211 41.4075 73.4299 41.4075L73.491 41.39C73.6132 41.3638 73.7355 41.3376 73.8665 41.3114L73.9363 41.3027C74.242 41.2415 74.5389 41.1891 74.827 41.1455V37.6962C74.827 30.3086 69.5876 24.1523 62.5843 22.8163C61.8682 22.7028 61.3181 22.0828 61.3181 21.3318C61.3181 20.4935 61.9992 19.8211 62.8288 19.8211C62.9336 19.8211 63.0296 19.8298 63.1257 19.8473H63.1344C70.0504 21.2532 75.2549 27.3658 75.2549 34.6923V41.0756C75.3684 41.0582 75.4907 41.0407 75.6042 41.032L75.8749 41.0058C76.1303 40.9811 76.3936 40.9641 76.6499 40.9476L76.6958 40.9446V31.5137C76.6958 25.1478 73.4997 19.5416 68.5747 16.2496C68.1817 15.9876 67.9197 15.5422 67.9197 15.027C67.9197 14.2149 68.5747 13.56 69.3868 13.56C69.7535 13.56 70.0854 13.691 70.3473 13.918C74.4515 17.2538 77.0887 22.3273 77.1236 28.0208V40.9184L77.1489 40.9175C77.3844 40.9091 77.6121 40.901 77.8397 40.901H77.9532C78.0888 40.901 78.2213 40.9103 78.3544 40.9197C78.4441 40.926 78.5342 40.9324 78.6256 40.9359V28.0208C78.6605 22.3273 81.2977 17.2538 85.4019 13.918C85.6552 13.6997 85.9957 13.56 86.3625 13.56C87.1746 13.56 87.8295 14.2149 87.8295 15.027C87.8295 15.5335 87.5675 15.9876 87.1746 16.2496C82.2495 19.5416 79.0535 25.1478 79.0535 31.5137V40.9446C79.1657 40.9517 79.2793 40.9558 79.3931 40.9601C79.5629 40.9663 79.7333 40.9726 79.9005 40.9883L80.1363 41.0145C80.2097 41.0201 80.2868 41.0331 80.3652 41.0463C80.408 41.0535 80.4512 41.0607 80.4943 41.0669V34.6923C80.4943 27.3658 85.6988 21.2532 92.6148 19.8473H92.6236C92.7196 19.8298 92.8157 19.8211 92.9205 19.8211C93.7588 19.8211 94.4312 20.5022 94.4312 21.3318C94.4312 22.0828 93.881 22.7028 93.165 22.8163C86.1616 24.1523 80.9222 30.3086 80.9222 37.6962V41.1368C81.0262 41.1516 81.1303 41.1645 81.2346 41.1773C81.4369 41.2023 81.6405 41.2274 81.8479 41.2677C81.874 41.2677 81.9002 41.2765 81.9264 41.2852L81.9264 41.2852C82.0079 41.3027 82.0972 41.3201 82.1865 41.3376C82.2311 41.3463 82.2757 41.3551 82.3194 41.3638L82.3718 41.3813V37.7049V37.6962V37.6875C82.3718 32.2123 86.8166 27.7763 92.2917 27.7763C93.4182 27.7763 94.501 27.9684 95.514 28.3177C95.9943 28.4836 96.3436 28.9377 96.3436 29.4703C96.3436 30.1427 95.7934 30.6929 95.121 30.6929C94.9464 30.6929 94.7805 30.6579 94.632 30.5881C93.5929 30.134 92.4402 29.8808 91.2351 29.8808C86.7118 29.8808 82.7997 33.5047 82.7997 37.8796V41.486C86.5808 42.3855 89.9951 44.3153 92.7109 47.0835C93.8374 46.8303 94.6757 46.4635 95.4092 45.9046C99.4086 42.8308 97.8717 39.4863 97.8543 39.4514C97.8106 39.3728 97.828 39.268 97.8979 39.2069C97.959 39.137 98.0638 39.1283 98.1424 39.172C99.5658 39.9492 100.387 40.8137 100.657 41.8091C100.893 42.6737 100.718 43.6691 100.116 44.8305C100.334 44.7694 100.596 44.717 100.902 44.6821C101.621 44.6068 102.02 44.7479 102.206 44.8136C102.214 44.8165 102.222 44.8192 102.229 44.8218C102.386 44.8829 102.43 44.9703 102.43 45.0489C102.43 45.2134 102.293 45.2663 102.179 45.3098L102.177 45.3108C102.165 45.3153 102.153 45.3201 102.141 45.325C102.007 45.3774 101.807 45.4561 101.679 45.6077C101.644 45.6514 101.566 45.8522 101.496 46.0356L101.496 46.0357C101.138 46.9876 100.395 48.961 98.1948 49.6595C97.47 49.8866 96.1951 49.8691 94.4137 49.6071C94.3744 49.6028 94.3351 49.5962 94.2958 49.5897C94.2565 49.5831 94.2172 49.5766 94.1779 49.5722ZM43.2561 38.4285C43.2865 38.5341 43.3167 38.6393 43.3469 38.7441L43.3513 38.7594C44.083 41.3115 44.7199 43.5331 45.7134 45.3807C45.9229 45.1187 46.2111 44.9353 46.5429 44.8567C47.0145 44.7432 47.4948 44.848 47.8703 45.1449C47.9576 45.206 48.0274 45.2846 48.0973 45.3632C48.0842 45.3327 48.0733 45.2999 48.0624 45.2672C48.0515 45.2344 48.0405 45.2017 48.0274 45.1711C47.8091 44.5773 47.652 43.9573 47.5646 43.3198C47.5559 43.2674 47.5472 43.2063 47.5384 43.1452C47.5341 43.1234 47.5319 43.1015 47.5297 43.0797C47.5275 43.0579 47.5253 43.036 47.521 43.0142L47.5122 42.9706L47.5035 42.9094V42.8221C47.486 42.6038 47.4773 42.3768 47.4773 42.1497C47.4773 41.163 47.6345 40.1413 47.8091 39.0672L47.81 39.0617C48.2813 36.0944 48.7677 33.0317 45.53 30.754C45.5213 30.981 45.4601 31.2779 45.2506 31.5923C44.7091 32.4219 44.779 33.6881 44.8751 34.57C44.8838 34.6923 44.7965 34.7971 44.683 34.8058C44.5694 34.8233 44.4646 34.7359 44.4472 34.6224C44.4472 34.5788 44.2987 33.4697 42.9365 31.5574C41.6179 29.7061 39.9937 28.9551 38.9196 28.8678C38.579 28.8416 38.2647 28.8853 37.994 28.9551C40.1247 29.7585 42.0283 34.3343 42.3252 35.2948C42.6726 36.4 42.9699 37.4338 43.2561 38.4285ZM45.4543 53.5074C44.2374 54.0549 42.7394 54.729 42.168 56.2525C41.5742 57.8418 42.0632 60.0598 42.3951 60.7933C42.4387 60.6798 42.4824 60.5662 42.5261 60.4353C42.532 60.4174 42.5379 60.4037 42.5439 60.3884C42.5467 60.3813 42.5495 60.3738 42.5523 60.3654C42.8055 59.6755 43.1897 59.0381 43.6875 58.4705L43.7137 58.4443C43.7311 58.4224 43.7508 58.4028 43.7704 58.3831C43.7901 58.3635 43.8097 58.3439 43.8272 58.322C44.0892 58.0339 44.3773 57.7806 44.683 57.5536C45.2593 57.117 45.9317 56.7415 46.7263 56.4096C46.7313 56.4046 46.7335 56.4025 46.736 56.4016C46.7379 56.4009 46.7401 56.4009 46.7438 56.4009C47.3551 56.1477 48.0536 55.9206 48.8745 55.7111C48.8919 55.7023 48.9094 55.7023 48.9269 55.7023C48.9618 55.7023 48.988 55.6936 49.0142 55.6849C48.7173 55.484 48.4815 55.2133 48.3069 54.8727L48.3069 54.8727C48.2719 54.8029 48.237 54.733 48.2108 54.6544C47.8266 53.6939 47.5297 53.5454 47.5297 53.5454C47.4336 53.5192 47.3813 53.4406 47.3813 53.3446C47.3813 53.2485 47.4511 53.1699 47.5472 53.1437C48.335 52.936 48.831 52.6681 49.2649 52.4338L49.2762 52.4277C49.5643 52.2705 49.8525 52.1133 50.1756 52.0085C50.1756 51.9998 50.1843 51.9998 50.1843 51.9998C50.1931 51.9998 50.204 51.9954 50.2149 51.9911C50.2258 51.9867 50.2367 51.9823 50.2455 51.9823C50.2629 51.9736 50.2717 51.9736 50.2804 51.9736C50.3764 51.9474 50.4812 51.9212 50.5686 51.9037C50.5074 51.2226 50.4026 50.6725 50.228 50.2184C49.6429 48.6553 48.8919 47.6249 48.0012 47.1533C47.9052 47.1009 47.8615 46.9787 47.9139 46.8739C47.9925 46.708 48.0362 46.5334 48.0362 46.3587C48.0362 46.0094 47.879 45.695 47.6083 45.4767C47.3376 45.2672 46.9883 45.1886 46.639 45.2672C46.1762 45.3807 45.8182 45.8173 45.792 46.3063C45.792 46.4286 45.8007 46.5508 45.8356 46.6643C45.8531 46.7255 45.8444 46.7953 45.8007 46.8477C45.7658 46.9001 45.7046 46.935 45.6348 46.935C44.3861 46.961 44.0588 47.2884 43.5669 47.7804L43.5565 47.7908C43.3818 47.9742 43.181 48.1663 42.9278 48.3759C42.8841 48.4108 42.7706 48.4981 40.343 49.0657C40.3517 49.3888 40.4128 50.1485 40.9368 50.4018C41.3647 50.6026 41.7751 50.5764 42.8579 50.4891L43.4342 50.4454H43.4953C43.932 50.4454 44.29 50.786 44.3075 51.2226C44.3162 51.6592 43.9756 52.0347 43.539 52.0609L41.9759 52.1046C42.2903 52.2967 42.692 52.5237 43.05 52.6198C44.1066 52.9167 46.0889 52.646 46.8311 52.2268C47.1193 51.9125 47.4511 51.3361 47.4424 50.3669C47.4424 50.1573 47.3987 49.9477 47.3289 49.7556C47.259 49.5547 47.1542 49.3801 47.0232 49.2316C46.9446 49.1443 46.9534 49.0133 47.0407 48.9347C47.128 48.8562 47.259 48.8649 47.3376 48.9522C47.4948 49.1356 47.6258 49.3626 47.7218 49.6159C47.8091 49.8604 47.8615 50.1223 47.8615 50.3756C47.879 51.8339 47.1979 52.5325 46.8311 52.8032C46.7089 52.8905 46.6215 52.9342 46.6041 52.9429C46.3072 53.1263 45.9055 53.3097 45.4863 53.493L45.4543 53.5074ZM49.3758 47.7768C49.0146 47.2781 48.7014 46.7522 48.4379 46.2015C48.4407 46.2212 48.4426 46.2399 48.4444 46.2583C48.4484 46.2972 48.4522 46.3347 48.4641 46.3762C48.4641 46.5508 48.4379 46.7255 48.3767 46.8914C48.736 47.1104 49.0685 47.4045 49.3758 47.7768ZM49.6443 48.1314C50.0207 48.6071 50.4428 49.0561 50.9091 49.4762C50.9266 49.4893 50.9419 49.5045 50.9572 49.5198C50.9724 49.5351 50.9877 49.5504 51.0052 49.5635L51.0576 49.6159C51.075 49.6333 51.0925 49.6508 51.11 49.6595C52.3063 50.7598 53.7209 51.5719 55.1181 52.2006C55.5547 52.3666 55.9913 52.4626 56.035 52.4626C55.319 52.3928 53.6511 52.1657 52.8477 52.0173C52.2539 51.9037 51.7562 51.8514 51.3283 51.8514C51.206 51.8514 51.0925 51.8514 50.9877 51.8688C50.9266 51.1615 50.8131 50.5764 50.6297 50.0874C50.3381 49.3069 50.0107 48.657 49.6443 48.1314ZM45.4339 66.8885C45.2244 63.544 50.848 58.4792 56.5153 55.7372C57.1702 55.4229 57.8601 55.1173 58.5325 54.8291C63.2392 52.9254 68.2952 52.1308 73.1941 52.4975C72.5741 52.253 71.9803 52.0522 71.3952 51.9037C70.6704 51.7204 69.9631 51.5981 69.2296 51.5457C66.0772 51.3012 63.5623 51.4235 61.7547 51.9037C60.8815 52.1395 60.2003 52.4451 59.7201 52.8294C59.6502 52.8818 59.5629 52.8905 59.493 52.8556C59.4144 52.8206 59.3708 52.7421 59.3708 52.6635C59.3533 52.1832 59.397 51.8601 59.4319 51.6592C59.4581 51.5108 59.5018 51.3711 59.5454 51.2401C58.4451 51.1964 57.5457 51.0742 56.8733 50.8821C54.5068 50.2009 52.5508 49.1531 51.0576 47.7821C49.1015 45.9832 48.2632 43.9224 47.9052 42.3418C47.9052 42.4354 47.9027 42.524 47.9004 42.6062C47.8983 42.6774 47.8965 42.7438 47.8965 42.8046C47.9052 42.8832 47.9139 42.9596 47.9227 43.036C47.9314 43.1124 47.9401 43.1889 47.9489 43.2674C47.9489 43.2762 47.951 43.2849 47.9532 43.2936C47.9554 43.3024 47.9576 43.3111 47.9576 43.3198C47.9838 43.5032 48.0187 43.6779 48.0536 43.8525L48.0711 43.9224C48.0798 43.9617 48.0886 43.9988 48.0973 44.0359C48.106 44.073 48.1148 44.1101 48.1235 44.1494L48.141 44.228C48.1453 44.2455 48.1497 44.2652 48.1541 44.2848C48.1584 44.3045 48.1628 44.3241 48.1672 44.3415C48.1672 44.3503 48.1846 44.4027 48.1846 44.4027L48.2196 44.5249C48.2283 44.5424 48.237 44.5773 48.2458 44.6122L48.2894 44.7519C48.3156 44.8393 48.3418 44.9266 48.3767 45.0139C48.3811 45.0314 48.3877 45.0467 48.3942 45.062C48.4008 45.0772 48.4073 45.0925 48.4117 45.11C48.988 46.6731 49.9922 48.0615 51.2148 49.2229C51.241 49.2404 51.2584 49.2578 51.2759 49.2753L51.3457 49.3452C51.3545 49.3495 51.361 49.3561 51.3676 49.3626C51.3741 49.3692 51.3807 49.3757 51.3894 49.3801C52.1142 50.0176 52.935 50.5764 53.8345 51.0567C53.8432 51.0567 53.8519 51.0567 53.8607 51.0654C54.1925 51.2401 54.4981 51.3885 54.7776 51.5108C54.9347 51.5807 55.0919 51.6505 55.2491 51.7116C55.9564 52.0085 56.7249 52.2618 57.5282 52.4626C57.7378 52.515 57.7728 52.6373 57.7553 52.7246C57.7204 52.9429 57.6505 52.9429 56.7423 52.8905C56.5939 52.8818 56.4542 52.873 56.3581 52.873C56.035 52.8643 55.7032 52.8468 55.3714 52.8119C54.5592 52.7421 53.6773 52.6198 52.7429 52.4452C51.9221 52.288 51.3021 52.2443 50.7956 52.3142H50.7869H50.7519H50.7257C50.6122 52.3316 50.4725 52.3578 50.3503 52.4015H50.3415C50.3372 52.4015 50.3328 52.4037 50.3284 52.4059C50.3241 52.408 50.3197 52.4102 50.3153 52.4102C50.0097 52.5063 49.7477 52.646 49.4421 52.8119C49.4118 52.8277 49.3813 52.8438 49.3504 52.86C48.9892 53.0497 48.5805 53.2643 48.0012 53.4494C48.1584 53.6502 48.3593 53.9733 48.5689 54.506C48.5951 54.5758 48.6212 54.637 48.6474 54.6894C48.7872 54.9688 48.9793 55.1871 49.215 55.3443C49.2325 55.3443 49.2412 55.353 49.25 55.3618C49.4945 55.5189 49.7128 55.5713 49.7826 55.5801H49.7914C49.7957 55.5801 49.8001 55.5822 49.8045 55.5844C49.8088 55.5866 49.8132 55.5888 49.8176 55.5888C49.9136 55.6063 49.9835 55.6936 49.9835 55.7984C49.9835 55.9119 49.8874 56.0079 49.7739 56.0079H49.7652H49.7477C49.6255 55.9992 49.4072 56.0254 49.0055 56.1215H48.9967H48.9793C48.9705 56.1215 48.9618 56.1302 48.9443 56.1302C48.141 56.3398 47.4598 56.5581 46.866 56.8026C46.866 56.8113 46.8573 56.8113 46.8573 56.8113C46.0976 57.1344 45.4601 57.4925 44.91 57.9029C44.648 58.1037 44.4035 58.322 44.1677 58.5578L44.159 58.5665L44.1066 58.6189C43.5565 59.1953 43.1548 59.8589 42.8928 60.5837C42.8055 60.8544 42.7094 61.0815 42.6221 61.2736C42.4562 61.6316 42.2903 61.911 42.1244 62.1119C42.1122 62.118 42.1043 62.1283 42.0976 62.1369C42.0947 62.1407 42.0921 62.1442 42.0894 62.1468C42.2292 62.1555 42.4125 62.1555 42.6658 62.1031C43.3556 61.9722 43.8621 61.6578 43.9582 61.5879C44.0455 61.5006 44.1677 61.5093 44.2463 61.5967C44.3162 61.6665 44.3249 61.7713 44.2725 61.8586C44.2201 62.0245 44.0106 62.7755 44.0979 64.3211C44.159 65.4389 44.9275 66.382 45.4339 66.8885ZM57.5981 55.7198H71.369C71.3632 55.6791 71.3555 55.6383 71.3477 55.5976C71.3322 55.5161 71.3166 55.4345 71.3166 55.353C71.3166 54.0694 72.3645 53.0215 73.6482 53.0215C73.7268 53.0215 73.8141 53.0215 73.8927 53.0302C73.8839 53.0215 73.8774 53.0106 73.8708 52.9997C73.8643 52.9887 73.8577 52.9778 73.849 52.9691H73.7792C68.7668 52.4888 63.5536 53.266 58.7246 55.222C58.4684 55.3268 58.22 55.4394 57.9716 55.5519C57.8474 55.6082 57.7233 55.6645 57.5981 55.7198ZM73.6569 57.2654C74.5039 57.2654 75.2637 56.6891 75.4907 55.877C75.5431 55.7023 75.5606 55.5277 75.5693 55.353C75.5693 54.2964 74.7135 53.4406 73.6569 53.4406C72.6003 53.4406 71.7445 54.2964 71.7445 55.353C71.7445 55.5364 71.7707 55.7111 71.8231 55.877C72.0501 56.6978 72.8011 57.2654 73.6569 57.2654ZM75.5431 53.9908C75.6391 54.113 75.7177 54.2527 75.7789 54.3925C75.8487 54.2528 75.9273 54.1218 76.0058 53.9909L76.0059 53.9908C75.8487 54.0082 75.6915 54.0082 75.5431 53.9908ZM77.9183 57.2654C78.7653 57.2654 79.525 56.6891 79.7521 55.877C79.8045 55.7023 79.8307 55.5277 79.8481 55.3443C79.8481 54.8204 79.6386 54.3313 79.2631 53.9646C79.036 53.755 78.7828 53.6066 78.4946 53.5192H78.4772C78.1017 53.397 77.6825 53.4144 77.3245 53.5367C77.0363 53.6328 76.7831 53.7899 76.5735 53.9995L76.5648 54.0082C76.2067 54.3663 76.0146 54.8465 76.0146 55.353C76.0146 55.5364 76.0321 55.7111 76.0845 55.877C76.3115 56.6978 77.0625 57.2654 77.9183 57.2654ZM79.8132 53.9908C79.9005 54.113 79.9791 54.244 80.0403 54.375C80.1014 54.244 80.1712 54.113 80.2586 53.9908C80.1101 54.0082 79.9617 54.0082 79.8132 53.9908ZM82.1622 57.2654C83.018 57.2654 83.769 56.6891 83.996 55.877C84.0484 55.7023 84.0746 55.5277 84.0833 55.3443C84.0833 54.2877 83.2276 53.4319 82.1709 53.4319C81.8653 53.4319 81.5597 53.5105 81.289 53.6502C81.289 53.659 81.2803 53.659 81.2803 53.659C81.2453 53.6851 81.2104 53.7026 81.1755 53.7201C80.5904 54.0868 80.2586 54.6894 80.2586 55.353C80.2586 55.5277 80.276 55.7111 80.3284 55.877C80.5555 56.6978 81.3152 57.2654 82.1622 57.2654ZM84.462 55.6009C84.4545 55.6407 84.447 55.6803 84.4414 55.7198H98.1512L98.1509 55.7197C97.8716 55.5887 97.5922 55.4578 97.3041 55.3356C92.3965 53.3009 87.096 52.4801 81.9876 52.9604C81.9701 52.9778 81.9614 53.004 81.9439 53.0215C82.0224 53.0128 82.0922 53.0128 82.162 53.0128H82.1622C83.4459 53.0128 84.4938 54.0606 84.4938 55.3443C84.4938 55.4329 84.4778 55.5176 84.462 55.6009ZM113.651 62.1555C113.494 61.9809 113.319 61.7102 113.118 61.2736C113.031 61.0815 112.935 60.8544 112.874 60.6012C112.804 60.4091 112.725 60.2169 112.638 60.0336L112.612 59.9812V59.9724C112.367 59.4834 112.053 59.0381 111.669 58.6364C111.442 58.4006 111.18 58.1648 110.857 57.9203C110.733 57.8195 110.602 57.7325 110.464 57.6409C110.447 57.6294 110.429 57.6177 110.411 57.606C110.385 57.5972 110.359 57.5798 110.342 57.5623C109.914 57.2916 109.433 57.0471 108.892 56.8201C108.289 56.5668 107.608 56.3485 106.814 56.1477C106.29 56.0167 106.071 56.008 106.002 56.0167C105.888 56.0254 105.783 55.9468 105.774 55.8333C105.766 55.7198 105.836 55.615 105.949 55.5975C106.063 55.5801 106.281 55.5189 106.517 55.3705C106.525 55.3618 106.543 55.353 106.56 55.3443C106.787 55.1871 106.98 54.9688 107.111 54.7068C107.137 54.6544 107.163 54.5933 107.189 54.5322C107.399 53.9995 107.6 53.6764 107.757 53.4756C107.128 53.2747 106.7 53.0477 106.316 52.8381C106.01 52.6722 105.748 52.5325 105.443 52.4364C105.436 52.4298 105.425 52.4282 105.416 52.4241C105.413 52.4227 105.41 52.4211 105.408 52.419C105.268 52.384 105.137 52.3578 104.997 52.3316C104.823 52.3054 104.631 52.2967 104.404 52.2967H104.342C103.958 52.3054 103.522 52.3578 103.006 52.4539C102.046 52.6285 101.181 52.7508 100.369 52.8119C100.037 52.8468 99.7055 52.8643 99.3824 52.873C99.2864 52.873 99.1379 52.8818 98.9895 52.8905L98.927 52.8935C98.0867 52.9344 98.0193 52.9377 97.9852 52.7246C97.9765 52.6547 97.9852 52.515 98.2123 52.4626C98.9895 52.2618 99.7579 52.0085 100.491 51.7116C100.556 51.6828 100.621 51.6554 100.686 51.6283C100.777 51.5898 100.867 51.5518 100.954 51.5108C101.242 51.3885 101.539 51.2401 101.871 51.0654C101.876 51.0654 101.88 51.0633 101.884 51.0611C101.889 51.0589 101.893 51.0567 101.897 51.0567C102.805 50.5764 103.635 50.0088 104.369 49.3626L104.447 49.284C104.447 49.2786 104.451 49.2766 104.455 49.2737C104.458 49.272 104.461 49.2699 104.465 49.2666C104.473 49.2578 104.473 49.2491 104.482 49.2491L104.526 49.2142C104.535 49.2142 104.569 49.1792 104.569 49.1792V49.1705C104.587 49.1443 104.613 49.1181 104.639 49.1007C104.651 49.0887 104.663 49.0777 104.675 49.0671C104.697 49.0467 104.718 49.0275 104.735 49.0046C104.753 48.9868 104.771 48.97 104.788 48.9535C104.822 48.9215 104.855 48.8907 104.884 48.8562C105.661 48.0528 106.298 47.1883 106.787 46.2714C106.796 46.2452 106.805 46.219 106.822 46.2015C106.953 45.9483 107.076 45.6863 107.198 45.3981L107.259 45.241C107.263 45.2303 107.268 45.2197 107.273 45.2085C107.28 45.1921 107.289 45.1744 107.294 45.1536C107.298 45.1362 107.305 45.1187 107.311 45.1012C107.318 45.0838 107.324 45.0663 107.329 45.0489C107.329 45.0401 107.338 45.0314 107.338 45.0227C107.338 45.0227 107.34 45.0202 107.342 45.0166C107.344 45.0134 107.346 45.0093 107.346 45.0052C107.351 44.9877 107.357 44.9724 107.364 44.9572C107.37 44.9419 107.377 44.9266 107.381 44.9091C107.381 44.8985 107.384 44.8912 107.387 44.8831C107.389 44.8779 107.39 44.8723 107.39 44.8655C107.39 44.848 107.399 44.8305 107.407 44.8131C107.425 44.7781 107.434 44.7432 107.442 44.7083C107.469 44.6297 107.495 44.5511 107.512 44.4812V44.4638V44.4551L107.53 44.3939C107.556 44.3153 107.573 44.2455 107.591 44.1669C107.591 44.1625 107.593 44.1581 107.595 44.1538C107.597 44.1494 107.6 44.1451 107.6 44.1407C107.6 44.1363 107.602 44.132 107.604 44.1276C107.606 44.1232 107.608 44.1189 107.608 44.1145C107.617 44.0796 107.626 44.0359 107.634 44.001C107.636 43.9955 107.638 43.9904 107.64 43.9855C107.646 43.9671 107.652 43.9518 107.652 43.9311C107.665 43.8777 107.674 43.8345 107.681 43.7977C107.683 43.7863 107.685 43.7755 107.687 43.7652C107.704 43.6691 107.722 43.5818 107.739 43.4945C107.744 43.477 107.746 43.4617 107.748 43.4465C107.75 43.4312 107.752 43.4159 107.757 43.3984V43.381C107.757 43.3679 107.759 43.3548 107.761 43.3417C107.763 43.3286 107.765 43.3155 107.765 43.3024L107.774 43.2238L107.783 43.1365L107.783 43.133C107.792 43.0293 107.801 42.9256 107.809 42.8134V42.7959V42.7872V42.787C107.809 42.7258 107.809 42.5862 107.8 42.3942C107.451 43.9398 106.63 45.9221 104.753 47.686C103.242 49.1007 101.251 50.1835 98.8323 50.8821C98.1599 51.0742 97.2692 51.1964 96.1602 51.2401C96.2038 51.3623 96.2388 51.5021 96.265 51.6592C96.2912 51.799 96.3086 51.9387 96.3174 52.0697V52.0871V52.0959C96.3436 52.4102 96.3261 52.6635 96.3261 52.6722C96.3261 52.7508 96.2737 52.8206 96.2038 52.8556C96.134 52.8905 96.0467 52.8818 95.9855 52.8294C95.5053 52.4451 94.8154 52.1308 93.9509 51.9037C92.1433 51.4235 89.6284 51.3012 86.476 51.5457C85.7512 51.5981 85.0439 51.7204 84.3104 51.9037C83.7253 52.0522 83.1315 52.253 82.5202 52.4975C83.2974 52.4364 84.0833 52.4102 84.8692 52.4102C89.1219 52.4102 93.427 53.2747 97.47 54.9513C98.0726 55.2046 98.6664 55.4753 99.234 55.746C104.901 58.4792 110.525 63.5527 110.315 66.8972C110.822 66.3907 111.59 65.4564 111.651 64.3299C111.741 62.7158 111.493 61.9473 111.462 61.8514C111.46 61.8451 111.459 61.8417 111.459 61.8412C111.424 61.7538 111.459 61.6578 111.529 61.5967C111.599 61.5355 111.704 61.5355 111.782 61.5879C111.782 61.5967 112.324 61.9721 113.075 62.1119C113.328 62.1643 113.52 62.1643 113.651 62.1555ZM110.66 50.9693C110.678 50.932 110.694 50.897 110.708 50.8646C110.289 50.5852 110.018 50.1049 110.01 49.5897C110.01 49.1705 110.184 48.7863 110.455 48.5069C110.455 47.8519 110.097 47.4153 109.8 47.1533C109.163 46.5945 108.124 46.3587 107.145 46.5159C106.595 47.5725 105.853 48.5331 104.936 49.3888C104.913 49.7742 104.958 50.0847 104.987 50.2844C104.991 50.311 104.994 50.3356 104.997 50.3581V50.3669C105.547 49.939 106.281 49.6945 107.014 49.6159C107.189 49.5984 107.355 49.5897 107.53 49.5897C108.805 49.5897 110.08 50.07 110.612 51.0742C110.629 51.0373 110.645 51.0024 110.66 50.9693ZM106.528 52.4653C106.955 52.6963 107.439 52.9576 108.211 53.1612C108.307 53.1787 108.377 53.266 108.377 53.362C108.377 53.4581 108.307 53.5454 108.22 53.5716C108.22 53.5716 107.931 53.7288 107.556 54.6806C107.551 54.6918 107.547 54.7027 107.543 54.7133C107.514 54.7857 107.49 54.8456 107.46 54.8989C107.381 55.0474 107.303 55.1784 107.198 55.3006C110.245 55.126 110.464 53.9646 110.464 53.9558C110.47 53.9427 110.472 53.9295 110.476 53.9163C110.477 53.912 110.479 53.9077 110.481 53.9035C110.473 53.9035 110.473 53.8947 110.473 53.8947C110.106 53.1699 110.202 52.3404 110.394 51.6942C110.088 50.4192 108.508 49.8953 107.067 50.0438C105.984 50.1573 104.718 50.6987 104.578 51.8601C104.744 51.8601 104.901 51.8775 105.041 51.895C105.207 51.9212 105.355 51.9561 105.495 51.9998H105.504C105.513 51.9998 105.556 52.0173 105.565 52.0173C105.574 52.0173 105.574 52.026 105.582 52.026C105.88 52.1199 106.135 52.2559 106.399 52.3963C106.429 52.4125 106.46 52.4288 106.491 52.4452L106.528 52.4653ZM102.91 52.026C103.373 51.9299 103.784 51.8775 104.15 51.8601C104.194 51.3885 104.386 50.9956 104.683 50.6725C104.648 50.6376 104.613 50.5852 104.613 50.524C104.613 50.5149 104.611 50.5011 104.607 50.4826C104.604 50.4655 104.6 50.4444 104.596 50.4193C104.592 50.392 104.587 50.3606 104.582 50.3253C104.562 50.1911 104.533 50.0012 104.526 49.773C103.862 50.3756 103.129 50.9257 102.334 51.3973C102.325 51.4016 102.319 51.406 102.312 51.4104C102.306 51.4147 102.299 51.4191 102.29 51.4235C102.285 51.4285 102.283 51.4306 102.281 51.4315C102.279 51.4322 102.277 51.4322 102.273 51.4322C102.132 51.5245 101.984 51.5932 101.814 51.6718C101.711 51.7196 101.6 51.7711 101.478 51.8339C101.473 51.8339 101.4 51.8681 101.326 51.9023C101.271 51.928 101.216 51.9536 101.19 51.9649C100.902 52.0871 100.518 52.2443 99.7841 52.419C100.5 52.3578 102.081 52.1832 102.91 52.026ZM112.97 55.3356C111.966 55.1871 111.223 54.8378 110.769 54.3139C110.499 54.7942 109.643 55.6325 106.901 55.7285C107.739 55.9468 108.42 56.1651 109.032 56.4184C109.599 56.6541 110.097 56.9074 110.551 57.1955C112.577 57.5448 113.354 56.2787 113.476 56.0604C113.485 55.9818 113.503 55.7372 113.372 55.5539C113.293 55.4316 113.153 55.3618 112.97 55.3356ZM112.874 59.6319C113.677 59.3001 114.14 58.8198 114.254 58.191C114.498 56.8113 114.123 56.462 114.053 56.4096C113.965 56.3922 113.869 56.3747 113.782 56.3572C113.555 56.724 112.795 57.6846 111.223 57.6846C111.503 57.9029 111.739 58.1212 111.94 58.3395C112.306 58.7325 112.621 59.1603 112.874 59.6319ZM115.406 51.0829V50.5939C115.406 50.4629 115.109 50.035 114.839 49.7556L114.821 49.7381L114.818 49.7346C114.751 49.6668 113.997 48.8947 112.717 49.0483H112.682C112.647 49.0483 112.621 49.0395 112.594 49.0308C112.568 49.0221 112.542 49.0046 112.525 48.9784C112.516 48.9697 112.516 48.9609 112.507 48.9522C112.306 48.6466 111.957 48.4632 111.582 48.4632C111.293 48.4632 111.031 48.568 110.831 48.7426L110.804 48.7688C110.586 48.9697 110.446 49.2666 110.446 49.5897C110.446 50.0263 110.7 50.4192 111.084 50.6026H111.092C111.119 50.6201 111.136 50.6376 111.154 50.655C111.168 50.6621 111.176 50.6805 111.183 50.6965C111.185 50.7004 111.187 50.704 111.189 50.7074C111.206 50.7423 111.215 50.786 111.206 50.8209C111.206 50.8384 111.197 50.8646 111.189 50.8821V50.8908C111.04 51.1702 110.324 52.6198 110.865 53.6939C111.189 54.3401 111.922 54.7592 113.04 54.9251C113.345 54.9688 113.581 55.0998 113.73 55.3181C113.878 55.5277 113.913 55.7634 113.913 55.9381C114.594 56.0516 115.205 56.4184 115.363 56.5232C115.398 56.5144 115.529 56.462 115.764 56.2437C116.061 55.9643 116 55.4491 115.965 55.257H115.913H115.258C115.179 55.257 115.101 55.2046 115.066 55.1347L114.874 54.733C114.83 54.6282 114.874 54.506 114.978 54.4536C115.074 54.4099 115.205 54.4536 115.258 54.5584L115.389 54.8378H115.904C116.48 54.8378 116.62 54.375 116.655 54.1654L116.079 53.755C115.983 53.6852 115.956 53.5542 116.026 53.4581C116.096 53.362 116.227 53.3359 116.323 53.4057L116.821 53.7637C116.943 53.5716 117.1 53.2835 117.1 53.0739C117.1 52.777 116.262 51.895 115.485 51.2488C115.432 51.2052 115.406 51.144 115.406 51.0829ZM114.891 49.2229C115.005 48.8824 115.153 48.2798 114.926 47.7646C114.778 47.4328 114.507 47.1883 114.114 47.0136C114.123 47.0311 114.123 47.0486 114.131 47.066C114.454 47.9742 114.35 48.6029 114.28 48.8474C114.542 48.9697 114.751 49.1094 114.891 49.2229ZM113.869 48.699C113.922 48.4981 114 47.9742 113.721 47.2145C113.433 46.4111 112.743 46.2103 112.254 46.1753C113.171 47.1097 112.987 48.4195 112.961 48.5854H113.049C113.354 48.5854 113.625 48.6291 113.869 48.699ZM112.552 48.2617C112.574 48.1338 112.765 46.9945 111.582 46.1579C111.119 45.826 110.656 45.6863 110.245 45.6601H110.237C109.451 45.5903 108.778 45.8784 108.394 46.088C109.04 46.1841 109.643 46.4373 110.097 46.8302C110.534 47.197 110.796 47.6773 110.874 48.2012C111.084 48.0877 111.328 48.0266 111.582 48.0266C111.94 48.0266 112.263 48.1314 112.533 48.3497C112.538 48.3322 112.54 48.3213 112.542 48.3104C112.544 48.2995 112.546 48.2886 112.551 48.2711C112.551 48.2691 112.552 48.266 112.552 48.2617ZM112.427 38.6104C112.731 37.5551 113.045 36.4656 113.415 35.2948C113.712 34.3343 115.598 29.7585 117.755 28.9551C117.485 28.894 117.161 28.8503 116.83 28.8765C115.747 28.9639 114.123 29.7148 112.813 31.5661C111.499 33.411 111.314 34.5082 111.295 34.6226C111.294 34.6267 111.294 34.6296 111.293 34.6312C111.276 34.7447 111.171 34.832 111.058 34.8145C110.935 34.7971 110.857 34.6923 110.865 34.5788V34.57C110.97 33.6881 111.031 32.4219 110.49 31.5923C110.28 31.2692 110.219 30.981 110.211 30.7453C109.189 31.4613 108.482 32.2909 108.062 33.2689C107.29 35.0486 107.613 37.0699 107.926 39.024L107.931 39.0585C107.975 39.2942 108.01 39.5213 108.045 39.757C108.054 39.7745 108.054 39.8007 108.054 39.8182V39.8531C108.193 40.7787 108.263 41.4948 108.263 42.1322C108.263 42.3506 108.254 42.5601 108.228 42.7784V42.8658C108.22 43.0055 108.202 43.1365 108.185 43.2674C108.185 43.2711 108.183 43.2762 108.181 43.2822C108.179 43.2907 108.176 43.3009 108.176 43.3111V43.3373C108.171 43.3515 108.169 43.3657 108.167 43.3812C108.165 43.3944 108.162 43.4086 108.158 43.4246V43.4334C108.158 43.477 108.15 43.5207 108.141 43.5643C108.132 43.6429 108.115 43.7303 108.097 43.8089C108.089 43.8874 108.071 43.9748 108.045 44.0621C108.045 44.097 108.027 44.1494 108.01 44.2018V44.2193C108.001 44.2804 107.984 44.3328 107.966 44.3852C107.958 44.3939 107.958 44.4027 107.958 44.4114V44.4201C107.952 44.4544 107.942 44.485 107.934 44.5118C107.93 44.526 107.926 44.5391 107.923 44.5511C107.914 44.5598 107.905 44.5773 107.905 44.5948C107.879 44.6908 107.844 44.8043 107.809 44.9091C107.805 44.9266 107.798 44.9441 107.792 44.9615C107.785 44.979 107.779 44.9965 107.774 45.0139C107.765 45.0489 107.757 45.0838 107.739 45.1187V45.1274C107.736 45.1334 107.734 45.1394 107.733 45.1454C107.73 45.1569 107.728 45.1684 107.722 45.1798C107.711 45.201 107.704 45.2221 107.696 45.2452C107.691 45.2603 107.685 45.2761 107.678 45.2934C107.591 45.5466 107.486 45.7998 107.373 46.0443C107.486 46.0356 107.6 46.0269 107.713 46.0269C107.722 45.9919 107.748 45.9657 107.774 45.9483C107.775 45.9478 107.779 45.9448 107.787 45.9397C107.908 45.8546 108.879 45.1736 110.114 45.2148C111.056 43.3937 111.675 41.2336 112.389 38.743L112.394 38.7266L112.427 38.6104ZM79.5512 11.6826C79.5512 10.7483 78.8002 9.99729 77.8659 9.99729C76.9315 9.99729 76.1805 10.7483 76.1805 11.6826C76.1805 11.8049 76.1893 11.9184 76.2155 12.0319L77.8659 20.2927L79.5163 12.0319C79.5425 11.9184 79.5512 11.7962 79.5512 11.6826ZM44.8056 48.0964C44.465 48.1139 44.238 48.4283 44.1681 48.6117C44.1332 48.7077 44.1681 48.8125 44.2554 48.8649C44.4388 48.9697 44.6047 49.0133 44.7532 49.0133C45.1287 49.0133 45.3906 48.7426 45.478 48.6029C45.5216 48.5331 45.5129 48.437 45.4605 48.3671C45.3644 48.2536 45.1287 48.079 44.8056 48.0964ZM113.363 51.3624C113.477 51.2838 113.747 51.1703 114.053 51.2576C114.376 51.3537 114.525 51.7117 114.551 51.8951C114.568 51.9999 114.507 52.0959 114.411 52.1221C114.298 52.1571 114.193 52.1745 114.097 52.1745C113.599 52.1745 113.354 51.7728 113.293 51.5895C113.267 51.5021 113.293 51.4148 113.363 51.3624ZM42.1597 101.993C42.7884 101.914 42.8583 101.809 42.7186 101.434C42.6667 101.278 42.6022 101.102 42.5304 100.906L42.5304 100.906C42.4332 100.64 42.3226 100.338 42.2121 100.002H40.1425C40.0797 100.179 40.0169 100.35 39.9553 100.518L39.9552 100.518C39.8715 100.746 39.7902 100.968 39.7146 101.189C39.5051 101.818 39.6535 101.896 40.4482 101.993V102.281H38.169V101.993C38.7803 101.914 38.9375 101.844 39.278 100.971L41.3039 95.8537L41.6445 95.7925C42.2645 97.4691 42.9369 99.2942 43.5481 100.98C43.8712 101.844 43.9586 101.914 44.6397 101.993V102.281H42.1597V101.993ZM41.0859 97.4959L40.9909 97.7476C40.7532 98.3771 40.5137 99.0115 40.2997 99.5998H42.0724L41.2079 97.1722L41.0859 97.4959ZM52.0535 100.648C51.9923 100.971 51.7042 101.984 51.6081 102.281H47.0149V101.993C47.8969 101.905 47.9755 101.853 47.9755 101.032V97.181C47.9755 96.3514 47.8794 96.299 47.1022 96.2204V95.9323H49.7918V96.2204C49.0146 96.299 48.9098 96.3427 48.9098 97.181V101.128C48.9098 101.713 48.9797 101.87 49.5298 101.879L49.7256 101.881L49.7294 101.881C49.9301 101.884 50.215 101.888 50.2546 101.888C50.7611 101.888 50.9095 101.818 51.1366 101.573C51.3723 101.329 51.5819 100.936 51.7304 100.569L52.0535 100.648ZM52.5512 102.001C53.1537 101.94 53.2149 101.896 53.2149 101.224V99.2331C53.2149 98.6218 53.1799 98.5782 52.6211 98.4908V98.2463C53.145 98.159 53.634 98.0368 54.0706 97.8621V99.0846V101.224C54.0706 101.888 54.1318 101.94 54.7518 102.001V102.281H52.5512V102.001ZM53.5904 96.9539C53.3022 96.9539 53.0402 96.7007 53.0402 96.4038C53.0402 96.0807 53.3022 95.8449 53.5991 95.8449C53.896 95.8449 54.1318 96.0807 54.1318 96.4038C54.1318 96.7007 53.896 96.9539 53.5904 96.9539ZM55.9044 97.9931V97.7399C55.9044 97.0413 56.1664 96.3165 56.7777 95.81C57.1182 95.5131 57.4937 95.3472 57.8867 95.2948C58.2272 95.3035 58.5241 95.417 58.69 95.6004C58.7861 95.7139 58.8036 95.8187 58.7512 95.9585C58.7162 96.072 58.6027 96.2117 58.4979 96.2903C58.3844 96.3601 58.2971 96.3427 58.201 96.2728C58.0002 96.0807 57.7208 95.8449 57.4064 95.8449C56.7689 95.8449 56.7602 96.7007 56.7602 97.5478V98.0018H57.7732C57.8255 98.0891 57.7819 98.3424 57.6684 98.4122H56.7602V101.224C56.7602 101.914 56.8563 101.931 57.5723 102.01V102.289H55.2408V102.01C55.8433 101.949 55.9044 101.905 55.9044 101.276V98.4122H55.2233L55.1796 98.2987L55.3979 97.9931H55.9044ZM60.0698 102.403C58.856 102.403 58.1312 101.425 58.1312 100.298C58.1312 99.6348 58.3844 99.006 58.7861 98.5782C59.2053 98.1241 59.7379 97.8708 60.2531 97.8708C61.1176 97.8708 61.7638 98.6131 61.7638 99.399C61.7551 99.5911 61.7289 99.6872 61.5805 99.7308C61.3883 99.7745 60.1134 99.8531 58.9869 99.8968C58.9695 101.163 59.7292 101.696 60.4278 101.696C60.8207 101.696 61.1962 101.538 61.5543 101.207L61.7114 101.434C61.1002 102.228 60.4016 102.403 60.0698 102.403ZM60.0261 98.2463C59.5895 98.2463 59.1703 98.6742 59.0481 99.4601C59.572 99.4601 60.096 99.4601 60.6374 99.4339C60.8033 99.4339 60.8644 99.3903 60.8644 99.2418C60.8644 98.7266 60.5413 98.2463 60.0261 98.2463ZM63.9033 98.2027C63.5714 98.2027 63.3095 98.4384 63.3095 98.8139C63.3095 99.2244 63.5889 99.4165 64.1216 99.661C64.9511 100.054 65.3878 100.351 65.3878 101.014C65.3878 101.923 64.5495 102.385 63.7635 102.385C63.2571 102.385 62.7943 102.22 62.5934 102.106C62.5497 101.835 62.4624 101.276 62.4188 100.945L62.7069 100.892C62.8903 101.512 63.2396 102.036 63.912 102.036C64.2875 102.036 64.5757 101.783 64.5757 101.399C64.5757 100.98 64.3311 100.761 63.7985 100.499C63.1261 100.167 62.5585 99.8531 62.5585 99.1283C62.5585 98.4035 63.1697 97.8534 64.1041 97.8534C64.4305 97.8534 64.7093 97.9116 64.9116 97.9539L64.9116 97.9539C64.969 97.9659 65.0203 97.9766 65.0647 97.9844C65.0909 98.2201 65.1694 98.8401 65.2131 99.0759L64.9249 99.1458C64.7416 98.5782 64.4709 98.2027 63.9033 98.2027ZM67.8678 102.281C67.7018 102.368 67.5446 102.403 67.4573 102.403C66.8111 102.403 66.4618 102.027 66.4618 101.224V98.4035H65.7982L65.7545 98.29L66.0165 97.9931H66.4618V97.1722C66.5666 97.0718 66.6998 96.9561 66.8329 96.8405C66.9661 96.7247 67.0993 96.609 67.2041 96.5086L67.3438 96.5348C67.3263 96.919 67.3176 97.4692 67.3176 97.9931H68.4092C68.4965 98.0891 68.4615 98.3162 68.348 98.4035H67.3263V100.883C67.3263 101.669 67.6407 101.809 67.8852 101.809C68.1035 101.809 68.3131 101.731 68.4528 101.661L68.5401 101.931L67.8678 102.281ZM71.8629 100.745L71.8628 100.745L71.8599 100.753C71.7381 101.058 71.597 101.412 71.4305 101.827C70.8049 103.361 70.6167 103.978 70.4613 104.487L70.4525 104.516C70.3914 104.726 70.2866 104.778 70.1469 104.778C69.8238 104.778 69.5182 104.542 69.5182 104.28C69.5182 104.149 69.588 104.062 69.7452 103.94C70.0683 103.704 70.3041 103.477 70.4263 103.215C70.6097 102.848 70.7494 102.525 70.8018 102.394C70.8367 102.254 70.8367 102.158 70.7756 102.001C70.4532 101.069 70.035 100.092 69.7426 99.408L69.7422 99.4072L69.6504 99.1923C69.6151 99.1093 69.5824 99.0324 69.5531 98.9624C69.3435 98.4472 69.2562 98.3337 68.7323 98.2638V97.9931H70.7843V98.2638C70.339 98.3337 70.2866 98.421 70.4089 98.779L71.3258 101.119C71.5877 100.464 71.972 99.4165 72.1728 98.8139C72.2863 98.4559 72.2077 98.3424 71.6576 98.2638V97.9931H73.439V98.2638C72.9412 98.3424 72.8365 98.421 72.5919 98.9711C72.4101 99.3738 72.2186 99.8537 71.863 100.745L71.8629 100.745ZM73.4914 102.001C74.1026 101.94 74.1725 101.888 74.1725 101.25V96.6134C74.1725 96.0283 74.1201 95.9672 73.5176 95.8886V95.6266C74.0677 95.5655 74.6877 95.4171 75.0283 95.2948V96.6745V101.259C75.0283 101.905 75.0807 101.949 75.7007 102.01V102.289H73.4914V102.001ZM78.1632 102.403C76.9494 102.403 76.2246 101.425 76.2246 100.298C76.2246 99.6348 76.4778 99.006 76.8795 98.5782C77.2987 98.1241 77.8314 97.8708 78.3466 97.8708C79.2111 97.8708 79.8573 98.6131 79.8573 99.399C79.8485 99.5911 79.8223 99.6872 79.6739 99.7308C79.4818 99.7745 78.2068 99.8531 77.0804 99.8968C77.0629 101.163 77.8226 101.696 78.5212 101.696C78.9142 101.696 79.2897 101.538 79.6477 101.207L79.8049 101.434C79.1936 102.228 78.495 102.403 78.1632 102.403ZM78.1195 98.2463C77.6829 98.2463 77.2638 98.6742 77.1415 99.4601C77.6655 99.4601 78.1894 99.4601 78.7308 99.4339C78.8967 99.4339 78.9578 99.3903 78.9578 99.2418C78.9578 98.7266 78.6347 98.2463 78.1195 98.2463ZM91.5936 96.2204C90.9037 96.3165 90.8076 96.4038 90.5369 97.2072C90.2313 98.1415 89.4541 100.604 88.904 102.385H88.5372C88.0457 100.928 87.4226 99.1659 86.9233 97.7542L86.923 97.7535L86.9229 97.753L86.9219 97.7503L86.8781 97.6263L86.5097 98.7076L86.5093 98.7088C86.0759 99.9805 85.6507 101.228 85.2626 102.385H84.9046C84.433 100.761 83.8654 98.9013 83.3327 97.181C83.0795 96.3951 82.966 96.2816 82.3373 96.2117V95.9235H84.8434V96.2117C84.1187 96.2903 84.1012 96.4038 84.2409 96.8928C84.5428 97.9496 84.8566 99.0004 85.1773 100.075L85.3848 100.77C85.9175 99.2506 86.4851 97.5827 86.9741 96.0021H87.3234C87.7422 97.2653 88.1663 98.4658 88.5996 99.6925L88.6022 99.6999L88.7233 100.043L88.8448 100.387L88.9826 100.779C89.3843 99.5213 89.9257 97.801 90.1265 97.0063C90.275 96.4387 90.1876 96.299 89.3581 96.2117V95.9235H91.6198V96.2204H91.5936ZM93.0431 102.403C91.8293 102.403 91.1045 101.425 91.1045 100.298C91.1045 99.6348 91.3578 99.006 91.7595 98.5782C92.1786 98.1241 92.7113 97.8708 93.2265 97.8708C94.091 97.8708 94.7372 98.6131 94.7372 99.399C94.7285 99.5911 94.7023 99.6872 94.5538 99.7308C94.3617 99.7745 93.0868 99.8531 91.9603 99.8968C91.9428 101.163 92.7026 101.696 93.4011 101.696C93.7941 101.696 94.1696 101.538 94.5276 101.207L94.6848 101.434C94.0735 102.228 93.3749 102.403 93.0431 102.403ZM92.9907 98.2463C92.5541 98.2463 92.135 98.6742 92.0127 99.4601C92.5367 99.4601 93.0606 99.4601 93.602 99.4339C93.7679 99.4339 93.829 99.3903 93.829 99.2418C93.8378 98.7266 93.5147 98.2463 92.9907 98.2463ZM95.1826 102.001C95.7938 101.94 95.8637 101.888 95.8637 101.25V96.6134C95.8637 96.0283 95.8113 95.9672 95.2087 95.8886V95.6266C95.7589 95.5655 96.3789 95.4171 96.7194 95.2948V96.6745V101.259C96.7194 101.905 96.7718 101.949 97.3918 102.01V102.289H95.1826V102.001ZM97.8197 102.001C98.431 101.94 98.5008 101.888 98.5008 101.25V96.6134C98.5008 96.0283 98.4484 95.9672 97.8459 95.8886V95.6266C98.396 95.5655 99.0161 95.4171 99.3566 95.2948V96.6745V101.259C99.3566 101.905 99.409 101.949 100.029 102.01V102.289H97.8197V102.001ZM103.33 102.272V102.001C103.871 101.94 103.924 101.879 103.924 101.215V99.5911C103.924 98.91 103.662 98.4908 103.068 98.4908C102.692 98.4908 102.343 98.7004 102.046 98.9624V101.259C102.046 101.923 102.099 101.94 102.649 102.001V102.281H100.518V102.001C101.138 101.931 101.199 101.896 101.199 101.25V99.2331C101.199 98.6044 101.129 98.5782 100.623 98.4908V98.2289C101.112 98.1503 101.627 98.028 102.064 97.8446V98.6044C102.192 98.5112 102.331 98.4181 102.483 98.3172L102.484 98.3161L102.492 98.3111C102.534 98.2828 102.578 98.254 102.622 98.2243C102.654 98.203 102.686 98.1812 102.719 98.159C102.998 97.9844 103.234 97.8708 103.522 97.8708C104.308 97.8708 104.797 98.4472 104.797 99.399V101.25C104.797 101.905 104.858 101.931 105.399 101.993V102.272H103.33ZM107.906 102.403C106.692 102.403 105.967 101.425 105.967 100.298C105.967 99.6348 106.22 99.006 106.622 98.5782C107.041 98.1241 107.574 97.8708 108.089 97.8708C108.953 97.8708 109.6 98.6131 109.6 99.399C109.591 99.5911 109.565 99.6872 109.416 99.7308C109.224 99.7745 107.949 99.8531 106.823 99.8968C106.805 101.163 107.565 101.696 108.264 101.696C108.657 101.696 109.032 101.538 109.39 101.207L109.547 101.434C108.936 102.228 108.237 102.403 107.906 102.403ZM107.862 98.2463C107.425 98.2463 107.006 98.6742 106.884 99.4601C107.408 99.4601 107.932 99.4601 108.473 99.4339C108.639 99.4339 108.7 99.3903 108.7 99.2418C108.7 98.7266 108.377 98.2463 107.862 98.2463ZM111.739 98.2027C111.407 98.2027 111.145 98.4384 111.145 98.8139C111.145 99.2244 111.425 99.4165 111.957 99.661C112.787 100.054 113.224 100.351 113.224 101.014C113.224 101.923 112.385 102.385 111.599 102.385C111.093 102.385 110.63 102.22 110.429 102.106C110.386 101.835 110.298 101.276 110.255 100.945L110.543 100.892C110.726 101.512 111.075 102.036 111.748 102.036C112.123 102.036 112.411 101.783 112.411 101.399C112.411 100.98 112.167 100.761 111.634 100.499C110.962 100.167 110.394 99.8531 110.394 99.1283C110.394 98.4035 111.006 97.8534 111.94 97.8534C112.266 97.8534 112.545 97.9117 112.747 97.9539L112.748 97.954L112.748 97.954C112.775 97.9597 112.801 97.9651 112.826 97.9701C112.852 97.9755 112.877 97.9803 112.9 97.9844C112.927 98.2201 113.005 98.8401 113.049 99.0759L112.761 99.1458C112.577 98.5782 112.307 98.2027 111.739 98.2027ZM115.407 98.2027C115.075 98.2027 114.813 98.4384 114.813 98.8139C114.813 99.2244 115.092 99.4165 115.625 99.661C116.455 100.054 116.891 100.351 116.891 101.014C116.891 101.923 116.053 102.385 115.267 102.385C114.76 102.385 114.298 102.22 114.097 102.106C114.053 101.835 113.966 101.276 113.922 100.945L114.21 100.892C114.394 101.512 114.743 102.036 115.415 102.036C115.791 102.036 116.079 101.783 116.079 101.399C116.079 100.98 115.835 100.761 115.302 100.499C114.63 100.167 114.062 99.8531 114.062 99.1283C114.062 98.4035 114.673 97.8534 115.608 97.8534C115.934 97.8534 116.213 97.9117 116.415 97.9539C116.472 97.9659 116.524 97.9766 116.568 97.9844C116.594 98.2201 116.673 98.8401 116.717 99.0759L116.428 99.1458C116.245 98.5782 115.974 98.2027 115.407 98.2027ZM59.8517 110.821C59.712 111.292 59.4588 112 59.3103 112.314L59.279 112.321C58.9769 112.387 58.2363 112.55 57.5202 112.55C55.1363 112.55 53.9574 110.969 53.9574 109.293C53.9574 107.293 55.4768 105.922 57.6949 105.922C58.3369 105.922 58.8971 106.03 59.2614 106.1L59.2616 106.1L59.2633 106.1C59.3738 106.121 59.4662 106.139 59.5374 106.149C59.581 106.594 59.6422 107.206 59.7208 107.677L59.4064 107.747C59.2055 107.075 58.9698 106.682 58.4633 106.472C58.2101 106.359 57.8171 106.298 57.4678 106.298C55.8873 106.298 55.0664 107.494 55.0664 109.092C55.0664 110.961 56.0357 112.174 57.5726 112.174C58.5419 112.174 59.0396 111.72 59.5374 110.725L59.8517 110.821ZM62.8819 107.992C64.1306 107.992 65.03 108.935 65.03 110.183C65.03 111.764 63.8686 112.524 62.8731 112.524C61.5022 112.524 60.6813 111.432 60.6813 110.332C60.6813 108.76 61.9213 107.992 62.8819 107.992ZM62.7683 108.332C62.2007 108.332 61.6855 108.891 61.6855 110.026C61.6855 111.266 62.2095 112.166 62.9779 112.166C63.5455 112.166 64.0258 111.755 64.0258 110.402C64.0258 109.232 63.5805 108.332 62.7683 108.332ZM71.0117 112.122C71.5531 112.061 71.6229 112.026 71.6229 111.354V109.712C71.6229 108.996 71.361 108.612 70.8108 108.612C70.4703 108.612 70.1472 108.786 69.7892 109.083C69.7904 109.1 69.7919 109.117 69.7935 109.134L69.7971 109.172C69.8056 109.263 69.8154 109.365 69.8154 109.502V111.415C69.8154 112.017 69.8939 112.07 70.4091 112.131V112.41H68.3047V112.131C68.881 112.07 68.9596 112.035 68.9596 111.406V109.712C68.9596 108.996 68.7238 108.629 68.1737 108.629C67.8069 108.629 67.4576 108.856 67.1607 109.101V111.415C67.1607 112.043 67.2306 112.087 67.7458 112.139V112.419H65.6238V112.139C66.2526 112.078 66.3049 112.035 66.3049 111.406V109.38C66.3049 108.769 66.27 108.725 65.7373 108.629V108.376C66.2089 108.306 66.6892 108.184 67.152 107.992V108.769L67.2271 108.712C67.4109 108.574 67.5969 108.434 67.8506 108.28C68.1038 108.114 68.3221 108.018 68.6365 108.018C69.1168 108.018 69.5097 108.306 69.7018 108.804C69.9175 108.631 70.1213 108.494 70.323 108.359C70.3663 108.329 70.4096 108.3 70.4528 108.271C70.6711 108.131 70.9418 108.018 71.2213 108.018C71.9984 108.018 72.4613 108.568 72.4613 109.529V111.415C72.4613 112.052 72.5136 112.078 73.0638 112.139V112.419H71.003V112.122H71.0117ZM78.9931 112.122C79.5345 112.061 79.6043 112.026 79.6043 111.354V109.712C79.6043 108.996 79.3424 108.612 78.7922 108.612C78.4517 108.612 78.1286 108.786 77.7705 109.083C77.7723 109.106 77.7743 109.129 77.7766 109.152L77.7784 109.172C77.787 109.263 77.7967 109.365 77.7967 109.502V111.415C77.7967 112.017 77.8753 112.07 78.3905 112.131V112.41H76.286V112.131C76.8624 112.07 76.941 112.035 76.941 111.406V109.712C76.941 108.996 76.7052 108.629 76.155 108.629C75.7883 108.629 75.439 108.856 75.1421 109.101V111.415C75.1421 112.043 75.2119 112.087 75.7272 112.139V112.419H73.6052V112.139C74.2339 112.078 74.2863 112.035 74.2863 111.406V109.38C74.2863 108.769 74.2514 108.725 73.7187 108.629V108.376C74.1903 108.306 74.6705 108.184 75.1334 107.992V108.769L75.2084 108.712C75.3923 108.574 75.5783 108.434 75.8319 108.28C76.0852 108.114 76.3035 108.018 76.6179 108.018C77.0981 108.018 77.4911 108.306 77.6832 108.804C77.8988 108.631 78.1026 108.494 78.3044 108.359C78.3477 108.329 78.3909 108.3 78.4342 108.271C78.6525 108.131 78.9232 108.018 79.2026 108.018C79.9798 108.018 80.4426 108.568 80.4426 109.529V111.415C80.4426 112.052 80.495 112.078 81.0452 112.139V112.419H78.9843V112.122H78.9931ZM86.302 112.174C85.813 112.244 85.2716 112.375 84.7477 112.515V111.781C84.2412 112.201 83.8133 112.515 83.2806 112.515C82.5995 112.515 82.0494 112.096 82.0494 111.065V109.144C82.0494 108.629 81.9708 108.577 81.7263 108.524L81.4643 108.472V108.21C81.8922 108.192 82.5646 108.096 82.9314 108.035C82.9052 108.367 82.9052 108.839 82.9052 109.467V110.812C82.9052 111.633 83.333 111.869 83.7522 111.869C84.1015 111.869 84.4333 111.729 84.7389 111.432V109.144C84.7389 108.629 84.6342 108.559 84.3111 108.516L84.0054 108.472V108.21C84.6167 108.184 85.324 108.079 85.5947 108.035V111.292C85.5947 111.781 85.6733 111.86 86.0313 111.878L86.2933 111.886V112.174H86.302ZM89.5854 112.393V112.122C90.1268 112.061 90.1792 112 90.1792 111.336V109.712C90.1792 109.031 89.9172 108.612 89.3234 108.612C88.9479 108.612 88.5986 108.821 88.3017 109.083V111.38C88.3017 112.043 88.3541 112.061 88.9043 112.122V112.401H86.7736V112.122C87.3936 112.052 87.4547 112.017 87.4547 111.371V109.354C87.4547 108.725 87.3848 108.699 86.8784 108.612V108.35C87.3674 108.271 87.8826 108.149 88.3192 107.965V108.725C88.4473 108.632 88.587 108.539 88.7384 108.438C88.8141 108.387 88.8926 108.335 88.9741 108.28C89.2536 108.105 89.4893 107.992 89.7775 107.992C90.5634 107.992 91.0524 108.568 91.0524 109.52V111.371C91.0524 112.026 91.1136 112.052 91.655 112.113V112.393H89.5854ZM92.1876 112.122C92.7902 112.061 92.8513 112.017 92.8513 111.345V109.354C92.8513 108.743 92.8164 108.699 92.2575 108.612V108.367C92.7814 108.28 93.2705 108.158 93.7071 107.983V109.205V111.345C93.7071 112.008 93.7682 112.061 94.3882 112.122V112.401H92.1789V112.122H92.1876ZM93.2268 107.083C92.9386 107.083 92.6767 106.83 92.6767 106.533C92.6767 106.21 92.9386 105.974 93.2355 105.974C93.5324 105.974 93.7682 106.21 93.7682 106.533C93.7682 106.821 93.5324 107.083 93.2268 107.083ZM96.7721 112.401C96.6062 112.489 96.449 112.524 96.3617 112.524C95.7155 112.524 95.3662 112.148 95.3662 111.345V108.524H94.7026L94.6589 108.411L94.9209 108.114H95.3662V107.293C95.471 107.193 95.6042 107.077 95.7373 106.961C95.8705 106.845 96.0037 106.73 96.1085 106.629L96.2482 106.656C96.2307 107.04 96.222 107.59 96.222 108.114H97.3135C97.4008 108.21 97.3659 108.437 97.2524 108.524H96.2307V111.004C96.2307 111.79 96.5451 111.93 96.7896 111.93C97.0079 111.93 97.2175 111.851 97.3572 111.781L97.4445 112.052L96.7721 112.401ZM100.767 110.867L100.767 110.867C100.644 111.174 100.503 111.529 100.335 111.947C99.7093 113.481 99.521 114.099 99.3657 114.608L99.3569 114.637C99.2958 114.846 99.191 114.899 99.0513 114.899C98.7282 114.899 98.4225 114.663 98.4225 114.401C98.4225 114.27 98.4924 114.183 98.6496 114.061C98.9727 113.825 99.2085 113.598 99.3307 113.336C99.5141 112.969 99.6538 112.646 99.7062 112.515C99.7411 112.375 99.7411 112.279 99.68 112.122C99.3575 111.19 98.9394 110.212 98.647 109.529L98.6469 109.529C98.5751 109.361 98.5109 109.211 98.4575 109.083C98.2479 108.568 98.1606 108.454 97.6366 108.385V108.114H99.6887V108.385C99.2434 108.454 99.191 108.542 99.3132 108.9L100.23 111.24C100.492 110.585 100.876 109.537 101.077 108.935C101.191 108.577 101.112 108.463 100.562 108.385V108.114H102.343V108.385C101.846 108.463 101.741 108.542 101.496 109.092C101.314 109.495 101.123 109.975 100.767 110.867ZM152.406 77.5157C153.55 77.5157 154.816 77.961 155.593 78.8517L154.432 80.048C153.794 79.3756 153.052 79.1137 152.415 79.1137C151.349 79.1137 150.886 79.6813 150.886 80.2227C150.886 81.0088 151.821 81.3705 152.886 81.7822C154.292 82.3263 155.925 82.9579 155.925 84.7722C155.925 86.606 154.24 87.8897 152.292 87.8897C150.424 87.8897 149.14 86.7283 148.808 86.3965L149.978 85.139C150.616 85.8376 151.48 86.2829 152.345 86.2829C153.349 86.2829 154.074 85.6717 154.074 84.9294C154.074 84.1226 153.129 83.7595 152.059 83.3481C150.662 82.8112 149.053 82.1922 149.053 80.3973C149.053 78.6945 150.511 77.5157 152.406 77.5157ZM146.145 83.9252C146.145 86.021 144.826 87.8897 142.11 87.8897C139.377 87.8897 138.102 86.021 138.102 83.9252V77.7776H139.953V83.7767C139.953 85.0255 140.538 86.2131 142.128 86.2131C143.717 86.2131 144.285 85.0255 144.285 83.7767V77.7776H146.145V83.9252ZM134.688 83.9252C134.688 86.021 133.369 87.8897 130.653 87.8897C127.929 87.8897 126.645 86.021 126.637 83.9252V77.7776H128.488V83.7767C128.488 85.0255 129.073 86.2131 130.662 86.2131C132.251 86.2131 132.819 85.0255 132.819 83.7767V77.7776H134.688V83.9252ZM123.17 87.619H121.301V83.3576H116.656V87.619H114.787V77.7689H116.638V81.7596H121.301V77.7689H123.17V87.619ZM101.322 87.619H99.4877H99.479V77.7689H103.531C105.819 77.7689 107.111 78.8954 107.111 80.7466C107.111 82.3359 106.028 83.279 104.928 83.5584L107.626 87.619H105.4L103.016 83.8466H101.322V87.619ZM103.278 82.4145C104.605 82.4145 105.269 81.8207 105.269 80.8165C105.269 79.7599 104.5 79.332 103.234 79.3232H101.313V82.4145H103.278ZM96.4925 86.021V87.619H89.4892V77.7689H96.3528V79.3669H91.3055V81.8731H95.497V83.3751H91.3055V86.021H96.4925ZM81.403 77.7689H83.263V85.9948H87.3847V87.619H81.403V77.7689ZM73.3168 77.7689H75.1768V85.9948H79.2985V87.619H73.3168V77.7689ZM70.3216 86.021V87.619H63.327V77.7689H70.1907V79.3669H65.1346V81.8731H69.3262V83.3751H65.1346V86.021H70.3216ZM52.9879 77.7689H60.3056V79.2709L55.1448 85.9948H60.393V87.619H52.8744V86.021L57.9566 79.3669H52.9879V77.7689ZM43.5221 87.619H41.7407H41.7319V77.7689H43.5395L48.2463 84.7286H48.2637L48.2375 77.7689H50.0102V87.619H48.1764L43.4958 80.7466H43.4784L43.5221 87.619ZM38.7455 86.021V87.619H31.7508V77.7689H38.6145V79.3669H33.5584V81.8731H37.75V83.3751H33.5584V86.021H38.7455ZM25.7168 79.332H23.7695V82.5542H25.7168C27.0528 82.5542 27.6903 81.8906 27.6903 80.8863C27.6903 79.9433 27.1402 79.332 25.7168 79.332ZM29.5416 80.8165C29.5416 82.8599 28.1531 84.0737 25.8827 84.0737H23.7607V87.619H21.9095V77.7689H25.8914C28.3278 77.7689 29.5416 78.9216 29.5416 80.8165ZM15.8841 79.332H13.9368V82.5542H15.8841C17.2202 82.5542 17.8577 81.8906 17.8577 80.8863C17.8577 79.9433 17.2988 79.332 15.8841 79.332ZM19.7177 80.8165C19.7177 82.8599 18.3292 84.0737 16.0588 84.0737H13.9368V87.619H12.0856V77.7689H16.0675C18.5039 77.7689 19.7177 78.9216 19.7177 80.8165ZM6.60166 83.9077L5.02984 79.8297L3.44055 83.9077H6.60166ZM7.16053 85.4534H2.87295L2.01717 87.6277H0L4.17407 77.7776H5.98166L10.1121 87.6277H8.05123L7.16053 85.4534Z" fill="black"/>
</g>
<defs>
<clipPath id="clip0_3208_109706">
<rect width="156" height="114.978" fill="white" transform="translate(0 0.0859375)"/>
</clipPath>
</defs>
</svg>
