<svg width="48" height="48" viewBox="0 0 48 48" fill="none" xmlns="http://www.w3.org/2000/svg">
<path fill-rule="evenodd" clip-rule="evenodd" d="M30 14C30 10.686 27.314 8 24 8C20.686 8 18 10.686 18 14C18 17.314 20.686 20 24 20C27.314 20 30 17.314 30 14ZM34 14C34 19.522 29.522 24 24 24C18.48 23.994 14.006 19.52 14 14C14 8.478 18.478 4 24 4C29.522 4 34 8.478 34 14ZM8 38V46H36H38H40V40V38C40 30.934 33.42 26 24 26C14.58 26 8 30.934 8 38ZM36 40V42H12V38C12 33.288 16.934 30 24 30C31.066 30 36 33.288 36 38V40Z" fill="white"/>
</svg>
