<?xml version="1.0" encoding="UTF-8"?>
<svg xmlns="http://www.w3.org/2000/svg" xmlns:xlink="http://www.w3.org/1999/xlink" width="145px" height="17px" viewBox="0 0 145 17" version="1.1">
  <defs>
    <path d="M136.516289,12.0661407 C141.657668,12.0661407 145,15.3399274 145,19.4198839 L145,21.0797961 C145,25.1372454 141.657668,28.4345624 136.516289,28.4345624 C131.375421,28.4345624 128.031555,25.1372454 128.031555,21.0797961 L128.031555,19.4198839 C128.031555,15.3399274 131.375421,12.0661407 136.516289,12.0661407 Z M8.80648605,12.0660896 C12.2383352,12.0660896 15.0957371,13.6538761 16.3423337,15.564949 L16.3423337,15.564949 L13.3657455,17.283687 C12.3830979,16.2734169 10.9150093,15.4774775 9.0371857,15.4774775 C6.22479837,15.4774775 4.56488624,17.2074692 4.56488624,19.4433631 L4.56488624,19.4433631 L4.56488624,21.1257826 C4.56488624,23.3396808 6.22479837,25.0446075 9.10675367,25.0446075 C10.8684601,25.0446075 12.3687751,24.2788483 13.3370998,23.3069429 L13.3370998,23.3069429 L16.2180321,24.9704357 C14.9463706,26.852863 12.2547041,28.4345112 8.76044842,28.4345112 C3.38836917,28.4345112 -5.32907052e-15,25.1371942 -5.32907052e-15,21.1032753 L-5.32907052e-15,21.1032753 L-5.32907052e-15,19.4658704 C-5.32907052e-15,15.4089326 3.50397476,12.0660896 8.80648605,12.0660896 Z M90.5344721,12 L92.6076998,15.5904232 L85.2099651,19.8611802 L85.2099651,27.9632906 L81.0640212,27.9632906 L81.0640212,19.8611802 L73.666798,15.5904232 L75.7400257,12 L83.1367374,16.2702454 L90.5344721,12 Z M36.091605,12.5725034 L42.9164271,27.9275858 L38.1433485,27.9275858 L36.8297416,24.7458744 L30.2816568,24.7458744 L28.9450311,27.9275858 L24.794995,27.9275858 L31.5267188,12.5725034 L36.091605,12.5725034 Z M57.4963382,12.5725034 L57.4963382,24.4466299 L67.3402053,24.4466299 L67.3402053,27.9275858 L53.0235272,27.9275858 L53.0235272,12.5725034 L57.4963382,12.5725034 Z M109.942093,12.5724011 C115.17606,12.5724011 118.219147,15.5934924 118.219147,19.3511856 L118.219147,21.1957597 C118.219147,24.9299226 115.17606,27.926972 109.942093,27.926972 L101.9428,27.926972 L101.9428,12.5724011 L109.942093,12.5724011 Z M136.516289,15.3629462 C133.979616,15.3629462 132.596441,17.0914032 132.596441,19.2352219 L132.596441,21.2419508 C132.596441,23.3857695 133.979616,25.1147381 136.516289,25.1147381 C139.028409,25.1147381 140.435114,23.3857695 140.435114,21.2419508 L140.435114,19.2352219 C140.435114,17.0914032 139.028409,15.3629462 136.516289,15.3629462 Z M109.711393,15.7316052 L106.4151,15.7316052 L106.4151,24.7693025 L109.711393,24.7693025 C112.224536,24.7693025 113.676768,23.2935408 113.676768,21.1722294 L113.676768,19.305148 C113.676768,17.1838365 112.224536,15.7316052 109.711393,15.7316052 Z M33.6244998,16.6770134 L31.3880944,22.0250508 L35.7923604,22.0250508 L33.6244998,16.6770134 Z" id="path-1"></path>
  </defs>
  <g id="Library" stroke="none" stroke-width="1" fill="none" fill-rule="evenodd">
    <g id="Elements/Brand/Logo/Full" transform="translate(0.000000, -12.000000)">
      <mask id="mask-2" fill="white">
        <use xlink:href="#path-1"></use>
      </mask>
      <use id="Combined-Shape" fill="#fff" xlink:href="#path-1"></use>
      <g id="Group" mask="url(#mask-2)">
        <g transform="translate(0.000000, -0.322987)" id="Colors/Primary/1/Full">
          <rect id="Swatch" fill="#fff" x="0" y="0" width="145" height="40"></rect>
        </g>
      </g>
    </g>
  </g>
</svg>
