<svg width="25" height="25" viewBox="0 0 25 25" fill="none" xmlns="http://www.w3.org/2000/svg">
<g clip-path="url(#clip0_107_79493)">
<mask id="mask0_107_79493" style="mask-type:alpha" maskUnits="userSpaceOnUse" x="0" y="0" width="25" height="25">
<path d="M21.6783 6.50238C21.6881 6.75846 21.6945 7.01691 21.6945 7.27417C21.6945 15.1728 16.7937 24.2804 7.83146 24.2804C5.07968 24.2804 2.51775 23.29 0.362305 21.5953C0.742745 21.6498 1.13111 21.6778 1.52438 21.6778C3.80853 21.6778 5.90774 20.7217 7.57557 19.1201C5.44389 19.0708 3.64284 17.3418 3.02463 14.9684C3.32317 15.0402 3.62888 15.0757 3.94138 15.0757C4.38561 15.0757 4.81587 15.0043 5.22537 14.8662C2.9967 14.3174 1.31567 11.9041 1.31567 9.00557C1.31567 8.98189 1.31567 8.95546 1.3168 8.93415C1.97314 9.37963 2.72533 9.64754 3.52396 9.68069C2.21733 8.60784 1.35681 6.777 1.35681 4.70311C1.35681 3.60935 1.59458 2.58148 2.01616 1.69842C4.4192 5.31431 8.00998 7.69439 12.0582 7.94376C11.9748 7.50736 11.9325 7.05281 11.9325 6.58327C11.9325 3.28185 14.114 0.605835 16.8043 0.605835C18.2064 0.605835 19.4722 1.33107 20.3618 2.4927C21.4707 2.22478 22.5127 1.72761 23.4552 1.04342C23.0921 2.43825 22.3191 3.60935 21.3129 4.3476C22.2987 4.20595 23.237 3.88358 24.1115 3.40772C23.4586 4.60644 22.6328 5.65759 21.6783 6.50238Z" fill="white"/>
</mask>
<g mask="url(#mask0_107_79493)">
<path d="M29.348 -5.45471H-5.43457V30.9089H29.348V-5.45471Z" fill="white"/>
</g>
</g>
<defs>
<clipPath id="clip0_107_79493">
<rect width="25" height="25" fill="white"/>
</clipPath>
</defs>
</svg>
